<svg width="20" height="24" fill="none" xmlns="http://www.w3.org/2000/svg"><path d="M9.748 24.001a2.835 2.835 0 01-2.718-2.039.751.751 0 01.72-.961c.33 0 .626.221.719.538a1.34 1.34 0 001.66.906c.437-.129.776-.468.905-.906a.755.755 0 01.93-.509.751.751 0 01.51.931 2.826 2.826 0 01-1.922 1.923 2.834 2.834 0 01-.804.117zm-8.998-4.5a.751.751 0 01-.63-1.156c.01-.018 1.38-2.314 1.38-7.844A8.236 8.236 0 019 2.285V.751a.75.75 0 011.5 0v2.25a.75.75 0 01-.75.75A6.758 6.758 0 003 10.501c0 3.824-.607 6.213-1.084 7.5h15.517a8.083 8.083 0 01-.663-1.995.747.747 0 01.737-.893.75.75 0 01.735.607c.18.928.567 1.825 1.118 2.594a.747.747 0 01-.609 1.187h-18z" fill="#617E8C"/></svg>