<svg width="12" height="12" fill="none" xmlns="http://www.w3.org/2000/svg"><path fill-rule="evenodd" clip-rule="evenodd" d="M4.822 6L.244 1.374A.761.761 0 01.032.786a.79.79 0 01.31-.553A.995.995 0 01.998.03c.24.01.466.105.63.263l4.279 4.324a.125.125 0 00.042.028.138.138 0 00.145-.028l4.28-4.324a.91.91 0 01.284-.203 1.01 1.01 0 01.713-.048c.117.035.224.09.316.162.093.072.168.16.221.258a.747.747 0 01.037.635.809.809 0 01-.189.277L7.178 6l4.578 4.626a.76.76 0 01.213.588.79.79 0 01-.31.553.994.994 0 01-.657.203.972.972 0 01-.63-.263L6.095 7.383a.125.125 0 00-.043-.028.138.138 0 00-.145.028l-4.279 4.324a.91.91 0 01-.285.203 1.01 1.01 0 01-.713.048.956.956 0 01-.316-.162.838.838 0 01-.22-.258.748.748 0 01-.038-.635.808.808 0 01.189-.277L4.822 6z" fill="#fff"/></svg>