<svg width="22" height="24" fill="none" xmlns="http://www.w3.org/2000/svg"><path d="M15.5 23.998c-.827 0-1.5-.673-1.5-1.5v-1.5h-.75a.75.75 0 010-1.5H14v-3c0-.827.673-1.5 1.5-1.5h3.441c.402 0 .779.156 1.062.441l1.059 1.06c.283.283.438.66.438 1.06v4.939c0 .827-.673 1.5-1.5 1.5h-4.5zm0-1.5H20v-4.939l-1.06-1.061H15.5v6zm0-12A1.502 1.502 0 0114 9.002V7.498h-.75a.75.75 0 010-1.5H14v-3c0-.827.673-1.5 1.5-1.5h3.441c.401 0 .778.156 1.061.44l1.06 1.061c.283.283.438.66.438 1.06V9a1.503 1.503 0 01-1.5 1.498h-4.5zM15.5 9l4.5-.002V4.059l-1.06-1.061H15.5V9zM1.25 2.998a.75.75 0 01-.75-.75v-1.5a.75.75 0 011.5 0v1.5a.75.75 0 01-.75.75zm0 12a.75.75 0 01-.75-.75v-3a.75.75 0 011.5 0v3a.75.75 0 01-.75.75zm1.5 6a2.252 2.252 0 01-2.25-2.25v-1.5a.75.75 0 011.5 0v1.5c0 .414.336.75.75.75h1.5a.75.75 0 010 1.5h-1.5zm4.5 0a.75.75 0 010-1.5h3a.75.75 0 010 1.5h-3zm-6-12a.75.75 0 01-.75-.75v-3a.75.75 0 011.5 0v.75h2.25a.75.75 0 010 1.5H2v.75a.75.75 0 01-.75.75zm6-1.5a.75.75 0 010-1.5h3a.75.75 0 010 1.5h-3z" fill="#617E8C"/></svg>