<svg width="227" height="227" fill="none" xmlns="http://www.w3.org/2000/svg"><path d="M15.477 0h10.319v1h-10.32V0zm20.637 0h10.318v1H36.114V0zM56.75 0h10.318v1H56.75V0zm20.636 0h10.319v1h-10.32V0zm20.637 0h10.318v1h-9.66l.124.95c-3.268.427-6.492.994-9.666 1.694l-.215-.976A113.09 113.09 0 0198.367 1h-.344V0zm20.636 0h10.318v1h-.344c3.191.425 6.341.983 9.444 1.668l-.216.976c-3.174-.7-6.398-1.267-9.666-1.693l.124-.951h-9.66V0zm20.636 0h10.319v1h-10.319V0zm20.637 0h10.318v1h-10.318V0zm20.636 0h10.318v1h-10.318V0zm20.637 0h10.318v1h-10.318V0zM227 15.477v10.319h-1v-10.32h1zm0 20.637v10.318h-1V36.114h1zm0 20.636v10.318h-1V56.75h1zm0 20.636v10.319h-1v-10.32h1zm0 20.637v10.318h-1v-9.66l-.951.124a112.209 112.209 0 00-1.693-9.666l.976-.215A112.915 112.915 0 01226 98.367v-.344h1zm0 20.636v10.318h-1v-.344a113.033 113.033 0 01-1.668 9.444l-.976-.216c.7-3.174 1.267-6.398 1.693-9.666l.951.124v-9.66h1zm0 20.636v10.319h-1v-10.319h1zm0 20.637v10.318h-1v-10.318h1zm0 20.636v10.318h-1v-10.318h1zm0 20.637v10.318h-1v-10.318h1zM221 227h6v-6h-6v6zm-9.477 0h-10.318v-1h10.318v1zm-20.637 0h-10.318v-1h10.318v1zm-20.636 0h-10.318v-1h10.318v1zm-20.636 0h-10.319v-1h10.319v1zm-20.637 0h-10.318v-1h9.66l-.124-.951c3.268-.426 6.492-.993 9.666-1.693l.216.976a113.033 113.033 0 01-9.444 1.668h.344v1zm-20.636 0H98.023v-1h.344a112.924 112.924 0 01-9.444-1.668l.216-.976c3.174.7 6.398 1.267 9.666 1.693l-.124.951h9.66v1zm-20.636 0H77.386v-1h10.319v1zm-20.637 0H56.75v-1h10.318v1zm-20.636 0H36.114v-1h10.318v1zm-20.636 0h-10.32v-1h10.319v1zM0 211.523v-10.318h1v10.318H0zm0-20.637v-10.318h1v10.318H0zm0-20.636v-10.318h1v10.318H0zm0-20.636v-10.319h1v10.319H0zm0-20.637v-10.318h1v9.66l.95-.124c.427 3.268.994 6.492 1.694 9.666l-.976.216A113.21 113.21 0 011 128.633v.344H0zm0-20.636V98.023h1v.344c.425-3.191.983-6.341 1.668-9.444l.976.216c-.7 3.174-1.267 6.398-1.693 9.666L1 98.681v9.66H0zm0-20.636V77.386h1v10.319H0zm0-20.637V56.75h1v10.318H0zm0-20.636V36.114h1v10.318H0zm0-20.636v-10.32h1v10.319H0zm226.894 92.66a116.45 116.45 0 000-9.912l-.999.043a114.438 114.438 0 010 9.826l.999.043zm-5.119-39.096a112.65 112.65 0 00-3.387-9.306l-.924.383c1.248 3.01 2.37 6.087 3.358 9.223l.953-.3zm-7.579-18.28a113.053 113.053 0 00-4.959-8.57l-.843.538a112.017 112.017 0 014.916 8.495l.886-.462zm-10.645-16.677a114.242 114.242 0 00-6.369-7.582l-.737.675a113.31 113.31 0 016.313 7.516l.793-.609zM190.18 29.818a114.328 114.328 0 00-7.583-6.369l-.609.793a113.153 113.153 0 017.516 6.313l.676-.737zm-24.261-17.014a113.309 113.309 0 018.571 4.959l-.538.842a112.213 112.213 0 00-8.495-4.915l.462-.886zm-8.973-4.192a112.554 112.554 0 00-9.305-3.387l-.301.953c3.136.988 6.213 2.11 9.223 3.358l.383-.924zM118.456.106a115.478 115.478 0 00-9.912 0l.043 1a114.47 114.47 0 019.826 0l.043-1zM79.36 5.225a112.666 112.666 0 00-9.306 3.387l.383.924a111.66 111.66 0 019.223-3.358l-.3-.953zm-18.28 7.579a113.358 113.358 0 00-8.57 4.959l.538.842a112.348 112.348 0 018.495-4.915l-.462-.886zM44.403 23.45a114.088 114.088 0 00-7.582 6.368l.675.737a113.128 113.128 0 017.516-6.313l-.609-.793zM29.818 36.82a114.062 114.062 0 00-6.369 7.583l.793.61a113.076 113.076 0 016.313-7.517l-.737-.675zM17.763 52.51a113.41 113.41 0 00-4.96 8.57l.887.463a112.422 112.422 0 014.915-8.495l-.842-.538zM8.612 70.054a112.64 112.64 0 00-3.387 9.305l.953.3c.988-3.135 2.11-6.212 3.358-9.222l-.924-.383zM0 113.5c0-1.66.036-3.313.106-4.956l1 .043a114.47 114.47 0 000 9.826l-1 .043A116.45 116.45 0 010 113.5zm5.225 34.141a112.55 112.55 0 003.387 9.305l.924-.383a111.546 111.546 0 01-3.358-9.223l-.953.301zm12.538 26.849a113.275 113.275 0 01-4.96-8.571l.887-.462a112.375 112.375 0 004.915 8.495l-.842.538zm5.687 8.107c2.013 2.62 4.138 5.15 6.368 7.582l.737-.675a113.153 113.153 0 01-6.313-7.516l-.793.609zm13.37 14.585a114.216 114.216 0 007.583 6.369l.61-.793a113.258 113.258 0 01-7.517-6.313l-.675.737zm15.69 12.055a113.07 113.07 0 008.57 4.959l.463-.886a112.395 112.395 0 01-8.495-4.916l-.538.843zm17.544 9.151a112.623 112.623 0 009.305 3.387l.3-.953a111.897 111.897 0 01-9.222-3.358l-.383.924zm38.49 8.506a116.45 116.45 0 009.912 0l-.043-.999a114.438 114.438 0 01-9.826 0l-.043.999zm39.096-5.119a112.427 112.427 0 009.306-3.387l-.383-.924a111.784 111.784 0 01-9.223 3.358l.3.953zm26.85-12.538a112.97 112.97 0 01-8.571 4.959l-.462-.886a112.044 112.044 0 008.495-4.916l.538.843zm8.107-5.686c2.62-2.014 5.15-4.139 7.582-6.369l-.675-.737a113.335 113.335 0 01-7.516 6.313l.609.793zm14.585-13.371a114.482 114.482 0 006.369-7.583l-.793-.609a113.335 113.335 0 01-6.313 7.516l.737.676zm12.055-15.69a112.97 112.97 0 004.959-8.571l-.886-.462a112.187 112.187 0 01-4.916 8.495l.843.538zm9.151-17.544a112.537 112.537 0 003.387-9.305l-.953-.301a111.784 111.784 0 01-3.358 9.223l.924.383zM0 0h6v6H0V0zm221 0v6h6V0h-6zM6 221H0v6h6v-6z" fill="#fff"/></svg>