<svg width="90" height="90" fill="none" xmlns="http://www.w3.org/2000/svg"><path d="M90 45c0 24.853-20.147 45-45 45S0 69.853 0 45 20.147 0 45 0s45 20.147 45 45z" fill="#69A042"/><path d="M45 77.98c-18.185 0-32.98-14.795-32.98-32.98 0-18.185 14.795-32.98 32.98-32.98 18.185 0 32.98 14.795 32.98 32.98 0 18.185-14.795 32.98-32.98 32.98zm0-62.287C28.84 15.693 15.693 28.84 15.693 45c0 16.16 13.147 29.307 29.307 29.307 16.16 0 29.307-13.148 29.307-29.307 0-16.16-13.147-29.307-29.307-29.307z" fill="#DDE8ED"/><path d="M7.184 35.022V16.629c0-1.87.311-3.7.927-5.444C10.412 4.635 16.629.232 23.579.232a16.396 16.396 0 0116.396 16.396v18.394" fill="#FFE152"/><path d="M13.928 17.346c0 6.507 3.81 14.034 5.902 17.676H7.183V16.63c0-1.87.312-3.7.927-5.444C10.398 4.673 16.558.284 23.46.233c-5.041.126-9.531 8.213-9.531 17.113z" fill="#E8C934"/><path d="M11.642 24.512a4.047 4.047 0 11-8.095 0 4.047 4.047 0 018.095 0z" fill="#F6CAAE"/><path d="M11.642 24.512a4.047 4.047 0 01-3.398 3.995 15.04 15.04 0 01-.537-3.995c0-1.382.187-2.722.537-3.995a4.048 4.048 0 013.398 3.995z" fill="#EAB599"/><path d="M9.042 24.512a1.446 1.446 0 11-2.893 0 1.446 1.446 0 012.893 0z" fill="#EAB599"/><path d="M33.97 19.345v13.91a14.998 14.998 0 01-10.391 4.162c-8.315 0-15.056-6.74-15.056-15.055v-5.733c0-.735.053-1.457.154-2.163 3.582 2.577 8.719 2.322 11.99-.771a8.513 8.513 0 002.263-3.535c.238 2.264 1.273 4.467 3.108 6.202 2.185 2.063 5.072 3.058 7.932 2.983z" fill="#EAB599"/><path d="M33.97 19.345v13.91a14.998 14.998 0 01-8.048 3.98c-7.202-1.125-12.71-7.357-12.71-14.873v-5.733c0-.154.002-.305.007-.456 2.655.272 5.412-.553 7.448-2.478a8.519 8.519 0 002.263-3.535c.237 2.264 1.273 4.467 3.108 6.201 2.185 2.064 5.072 3.059 7.932 2.984z" fill="#F6CAAE"/><path d="M31.665 21.09a2.5 2.5 0 00-5.001 0m-6.168 0a2.5 2.5 0 10-5.001 0" fill="#EAB599"/><path d="M19.703 22.155a1.708 1.708 0 11-3.417 0 1.708 1.708 0 013.417 0zm11.169 0a1.709 1.709 0 11-3.417 0 1.709 1.709 0 013.417 0z" fill="#3D4159"/><path d="M25.288 26.455h-3.416a.737.737 0 010-1.473h3.416a.737.737 0 010 1.473zm-1.708 4.661a7.608 7.608 0 01-3.67-.948.669.669 0 11.644-1.173 6.252 6.252 0 006.05 0 .67.67 0 11.646 1.173 7.605 7.605 0 01-3.67.948z" fill="#EAB599"/><path d="M19.355 21.853a.732.732 0 11-1.463 0 .732.732 0 011.463 0zm11.253 0a.732.732 0 11-1.464 0 .732.732 0 011.464 0z" fill="#fff"/><path d="M33.827 26.315a1.875 1.875 0 11-3.751 0 1.875 1.875 0 013.75 0zm-16.745 0a1.875 1.875 0 11-3.75 0 1.875 1.875 0 013.75 0z" fill="#EAB599"/><path d="M56.555 43.316a4.234 4.234 0 11-8.467.002 4.234 4.234 0 018.467-.002z" fill="#D3A489"/><path d="M56.555 43.316a4.234 4.234 0 01-3.556 4.18 15.747 15.747 0 01-.561-4.18c0-1.446.195-2.847.561-4.18a4.235 4.235 0 013.556 4.18z" fill="#BF8E75"/><path d="M53.834 43.316a1.514 1.514 0 11-3.027 0 1.514 1.514 0 013.027 0z" fill="#BF8E75"/><path d="M81.532 43.316a4.234 4.234 0 108.468.002 4.234 4.234 0 00-8.468-.002z" fill="#D3A489"/><path d="M81.532 43.316a4.234 4.234 0 003.556 4.18c.366-1.332.561-2.733.561-4.18 0-1.446-.195-2.847-.561-4.18a4.235 4.235 0 00-3.556 4.18z" fill="#BF8E75"/><path d="M87.28 43.316a1.514 1.514 0 11-3.028 0 1.514 1.514 0 013.027 0z" fill="#BF8E75"/><path d="M84.797 41.066c0 7.839-5.727 14.342-13.225 15.55-.822.135-1.667.203-2.528.203-8.7 0-15.753-7.052-15.753-15.753 0-4.116 1.43-10.296 4.015-13.102 2.879-3.125 7.154-2.65 11.738-2.65.861 0 1.705.068 2.528.203 7.498 1.207 13.225 7.71 13.225 15.55z" fill="#BF8E75"/><path d="M84.797 41.066c0 7.839-5.727 14.342-13.225 15.55-7.498-1.208-13.224-7.711-13.224-15.55 0-4.827 2.17-9.147 5.591-12.037a15.676 15.676 0 017.633-3.513c6.99 1.126 12.442 6.856 13.147 13.98.052.516.078 1.04.078 1.57z" fill="#D3A489"/><path d="M69.044 48.825c-1.32 0-2.638-.33-3.84-.992a.7.7 0 11.675-1.228 6.539 6.539 0 006.33 0 .7.7 0 01.676 1.228 7.96 7.96 0 01-3.84.992z" fill="#BF8E75"/><path d="M65.69 40.149a1.787 1.787 0 11-3.575 0 1.787 1.787 0 013.574 0zm10.282 0a1.787 1.787 0 11-3.573 0 1.787 1.787 0 013.573 0z" fill="#3D4159"/><path d="M65.325 39.834a.766.766 0 11-1.531 0 .766.766 0 011.53 0zm10.371 0a.766.766 0 11-1.531 0 .766.766 0 011.53 0z" fill="#fff"/><path d="M70.83 44.648h-3.573a.771.771 0 010-1.541h3.574a.77.77 0 110 1.541z" fill="#BF8E75"/><path d="M68.122 20.813a9.548 9.548 0 018.846 9.049l.045.91h2.746l1.478 9.832 3.58-1.108-.48-9.635a9.549 9.549 0 00-9.572-9.073l-6.643.025z" fill="#2A2F4F"/><path d="M84.034 17.011c3.8 3.8 3.8 9.961 0 13.761-3.8 3.8-9.961 3.8-13.761 0l13.76-13.761z" fill="#3D4159"/><path d="M70.273 30.772H58.33l-1.48 9.832-3.58-1.108.48-9.635a9.549 9.549 0 019.572-9.073l17.248.065 2.28 4.104" fill="#3D4159"/><path d="M69.966 20.813a9.548 9.548 0 00-8.846 9.049l-.046.91H58.33l-1.48 9.832-3.58-1.108.48-9.635a9.549 9.549 0 019.572-9.073l6.644.025z" fill="#2A2F4F"/><path d="M19.487 72.246a3.949 3.949 0 11-7.898 0 3.949 3.949 0 017.898 0z" fill="#F6CAAE"/><path d="M19.487 72.246a3.949 3.949 0 01-3.316 3.898 14.69 14.69 0 01-.523-3.898c0-1.349.182-2.656.523-3.897a3.948 3.948 0 013.316 3.897z" fill="#EAB599"/><path d="M16.95 72.246a1.41 1.41 0 11-2.822 0 1.41 1.41 0 012.822 0z" fill="#EAB599"/><path d="M42.778 72.246a3.948 3.948 0 107.897 0 3.948 3.948 0 00-7.897 0z" fill="#F6CAAE"/><path d="M42.778 72.246a3.948 3.948 0 003.315 3.898 14.69 14.69 0 00.524-3.898 14.65 14.65 0 00-.524-3.897 3.948 3.948 0 00-3.315 3.897z" fill="#EAB599"/><path d="M45.821 64.554v5.594c0 7.31-5.34 13.374-12.331 14.499a14.477 14.477 0 01-2.358.19c-8.111 0-14.688-6.577-14.688-14.69v-5.593c0-1.707.291-3.35.83-4.874 2.008-5.716 7.456-9.815 13.858-9.815h.001c.777 0 1.543.06 2.287.178 7.026 1.098 12.401 7.177 12.401 14.511z" fill="#EAB599"/><path d="M48.137 72.246a1.411 1.411 0 11-2.822 0 1.411 1.411 0 012.822 0z" fill="#EAB599"/><path d="M45.821 64.554v5.594c0 7.31-5.34 13.374-12.331 14.499a2.171 2.171 0 00-.072.012c-7.026-1.098-12.4-7.178-12.4-14.511v-5.594c0-7.334 5.375-13.413 12.402-14.511 7.026 1.098 12.401 7.177 12.401 14.511z" fill="#F6CAAE"/><path d="M28.004 69.293a1.666 1.666 0 11-3.331 0 1.666 1.666 0 013.331 0zm9.589 0a1.666 1.666 0 11-3.331 0 1.666 1.666 0 013.331 0z" fill="#3D4159"/><path d="M27.664 68.998a.713.713 0 11-1.426.002.713.713 0 011.426-.002zm9.672 0a.714.714 0 11-1.428 0 .714.714 0 011.428 0z" fill="#fff"/><path d="M32.799 72.835h-3.332a.719.719 0 110-1.438h3.332a.719.719 0 110 1.438zm-1.666 4.547c-1.23 0-2.46-.308-3.581-.925a.653.653 0 11.629-1.144 6.1 6.1 0 005.903 0 .654.654 0 11.63 1.144 7.42 7.42 0 01-3.581.925z" fill="#EAB599"/><path d="M45.821 59.478v5.73h-2.733v-4.486l-19.734-3.668-4.176-.776v8.93h-2.734v-5.73c0-6.531 5.294-11.825 11.825-11.825h5.728a9.7 9.7 0 01.467.01c6.313.243 11.357 5.439 11.357 11.815z" fill="#A35418"/><path d="M45.821 59.478v5.73h-2.733v-4.486l-19.735-3.668c1.087-5.223 5.619-9.18 11.11-9.391 6.314.243 11.358 5.439 11.358 11.815z" fill="#CC7A3B"/></svg>