<svg width="90" height="90" fill="none" xmlns="http://www.w3.org/2000/svg"><circle cx="45" cy="45" r="45" fill="#7584F2"/><path d="M45 0c24.853 0 45 20.147 45 45S69.853 90 45 90V0z" fill="#4855B7"/><g clip-path="url(#clip0)"><path d="M72.748 37.002h-16.12a2.05 2.05 0 01-2.052-2.05v-1.949c0-5.575 4.536-10.111 10.112-10.111 5.575 0 10.11 4.536 10.11 10.111v1.948a2.05 2.05 0 01-2.05 2.05z" fill="#FF435B"/><path d="M33.64 37.002H17.52a2.05 2.05 0 01-2.051-2.05v-1.949c0-5.575 4.536-10.111 10.11-10.111 5.576 0 10.112 4.536 10.112 10.111v1.948a2.05 2.05 0 01-2.05 2.05z" fill="#BCFBFF"/><path d="M25.58 26.406c-4.523 0-8.203-3.68-8.203-8.203S21.057 10 25.58 10s8.203 3.68 8.203 8.203-3.68 8.203-8.203 8.203z" fill="#FFDECF"/><path d="M28.171 80h-16.12A2.05 2.05 0 0110 77.95V76c0-5.575 4.536-10.11 10.111-10.11 5.576 0 10.111 4.535 10.111 10.11v1.948a2.05 2.05 0 01-2.05 2.051z" fill="#BEE75E"/><path d="M77.95 80H61.828a2.05 2.05 0 01-2.051-2.05V76c0-5.575 4.536-10.11 10.11-10.11C75.465 65.89 80 70.425 80 76v1.948A2.05 2.05 0 0177.95 80z" fill="#4793FF"/><path d="M64.688 26.406c-4.524 0-8.204-3.68-8.204-8.203S60.164 10 64.687 10c4.524 0 8.204 3.68 8.204 8.203s-3.68 8.203-8.204 8.203z" fill="#FFCDBE"/><path d="M75.218 19.571l-.956-.001a1.372 1.372 0 01-1.37-1.368s-.022-.807-.06-.962c-.478-4.07-3.947-7.24-8.144-7.24-4.202 0-7.674 3.176-8.147 7.252-.036.152-.057.95-.057.95 0 .753-.614 1.366-1.37 1.368l-.956.001a2.05 2.05 0 00.004 4.102h.003l.957-.002a5.48 5.48 0 005.464-5.467v-.001a4.106 4.106 0 014.102-4.102 4.107 4.107 0 014.091 3.814c.007.095.013.331.013.353a5.479 5.479 0 005.463 5.403l.957.002h.003a2.05 2.05 0 00.003-4.102z" fill="#FFCD00"/><path d="M69.883 45.82H47.05V29.414h2.324a2.05 2.05 0 000-4.102h-8.75a2.05 2.05 0 000 4.102h2.324V45.82H20.117a2.05 2.05 0 00-2.05 2.051v3.418a2.05 2.05 0 004.101 0v-1.367h20.781v1.367a2.05 2.05 0 004.102 0v-1.367h20.781v1.367a2.05 2.05 0 004.102 0v-3.418a2.05 2.05 0 00-2.051-2.05z" fill="#BCFBFF"/><path d="M20.111 68.693a6.16 6.16 0 01-6.152-6.152 6.16 6.16 0 016.152-6.153 6.16 6.16 0 016.152 6.153 6.16 6.16 0 01-6.152 6.152z" fill="#FFDECF"/><path d="M53.06 80H36.94a2.05 2.05 0 01-2.051-2.05V76c0-5.575 4.536-10.11 10.111-10.11 5.575 0 10.111 4.535 10.111 10.11v1.948A2.05 2.05 0 0153.061 80z" fill="#D98FF8"/><path d="M69.889 68.693a6.16 6.16 0 01-6.152-6.152 6.16 6.16 0 016.152-6.153 6.16 6.16 0 016.152 6.153 6.16 6.16 0 01-6.152 6.152z" fill="#FFCDBE"/><path d="M45 65.89V80h8.06a2.05 2.05 0 002.051-2.05V76c0-5.575-4.536-10.11-10.111-10.11z" fill="#CA75F5"/><path d="M45 68.693a6.16 6.16 0 01-6.152-6.152A6.16 6.16 0 0145 56.388a6.16 6.16 0 016.152 6.153A6.16 6.16 0 0145 68.692z" fill="#FFDECF"/><path d="M69.883 45.82H47.05V29.414h2.324a2.05 2.05 0 000-4.102H45V53.34a2.05 2.05 0 002.05-2.05v-1.368h20.782v1.367a2.05 2.05 0 004.102 0v-3.418a2.05 2.05 0 00-2.051-2.05z" fill="#7DD5F4"/><path d="M45 56.388v12.305a6.16 6.16 0 006.152-6.152A6.16 6.16 0 0045 56.388z" fill="#FFCDBE"/></g><defs><clipPath id="clip0"><path fill="#fff" transform="translate(10 10)" d="M0 0h70v70H0z"/></clipPath></defs></svg>