<svg width="90" height="90" fill="none" xmlns="http://www.w3.org/2000/svg"><path d="M87.907 45.131c0 23.742-19.247 42.989-42.989 42.989-23.741 0-42.988-19.247-42.988-42.99 0-23.742 19.247-42.988 42.988-42.988 23.742 0 42.989 19.246 42.989 42.988z" fill="#E1B91E"/><path d="M80.889 45.131c0 19.866-16.105 35.97-35.97 35.97-19.866 0-35.97-16.104-35.97-35.97 0-19.865 16.104-35.97 35.97-35.97 19.865 0 35.97 16.105 35.97 35.97z" fill="#51489A"/><path d="M50.292 80.703a36.24 36.24 0 01-5.373.398c-19.866 0-35.97-16.104-35.97-35.97 0-19.865 16.104-35.97 35.97-35.97 1.826 0 3.62.136 5.373.4-17.317 2.593-30.596 17.53-30.596 35.57s13.28 32.978 30.596 35.572z" fill="#453D83"/><path d="M44.918 8.723C24.843 8.723 8.51 25.055 8.51 45.13s16.333 36.41 36.408 36.41c20.076 0 36.409-16.333 36.409-36.409S64.994 8.723 44.918 8.723zM78.67 43.815H64.82a64.674 64.674 0 00-1.078-10.703h12.744a33.57 33.57 0 012.184 10.703zM68.35 20.826a33.945 33.945 0 017 9.654H63.181c-.831-3.499-1.965-6.754-3.376-9.65h8.098c.136 0 .427-.022.446-.004zM28.705 56.8a61.963 61.963 0 01-1.057-10.353h34.54A61.984 61.984 0 0161.133 56.8H28.705zm31.857 2.632c-.86 3.538-2.044 6.8-3.525 9.65H32.8c-1.481-2.85-2.666-6.112-3.525-9.65h31.287zM27.648 43.814c.074-3.71.456-7.314 1.125-10.703h32.29c.67 3.39 1.052 6.993 1.125 10.703h-34.54zm1.713-13.335c.877-3.505 2.076-6.731 3.568-9.547l.056-.103h23.867l.055.103c1.492 2.816 2.691 6.042 3.568 9.547H29.361zM65.28 18.198h-6.891c-1.35-2.262-2.846-4.146-4.454-5.622a33.688 33.688 0 0111.345 5.622zm-20.36-6.843c3.747 0 7.354 2.405 10.353 6.843H34.564c3-4.438 6.606-6.843 10.354-6.843zm-9.017 1.221c-1.607 1.476-3.104 3.36-4.453 5.622h-6.892a33.688 33.688 0 0111.345-5.622zm-14.42 8.254c.02-.02.314 0 .45 0h8.098c-1.411 2.896-2.545 6.151-3.376 9.65H14.488a33.95 33.95 0 016.995-9.65zm-8.132 12.282h12.744a64.684 64.684 0 00-1.08 10.703H11.168a33.564 33.564 0 012.184-10.703zm-2.184 13.335h13.849A64.856 64.856 0 0026.03 56.8H13.22a33.57 33.57 0 01-2.053-10.353zm9.947 22.625a33.934 33.934 0 01-6.794-9.64h12.253c.805 3.49 1.91 6.745 3.289 9.65h-8.368c-.113 0-.362.007-.38-.01zm2.988 2.642h7.14c1.403 2.419 2.97 4.42 4.66 5.972a33.697 33.697 0 01-11.8-5.972zm20.816 7.194c-3.845 0-7.542-2.532-10.587-7.194h21.175c-3.045 4.662-6.742 7.194-10.588 7.194zm9.016-1.222c1.69-1.551 3.258-3.553 4.66-5.972h7.14a33.697 33.697 0 01-11.8 5.972zm14.737-8.563a1.324 1.324 0 00-.328-.041h-8.368c1.38-2.905 2.484-6.16 3.29-9.65h12.251a33.936 33.936 0 01-6.845 9.691zM76.617 56.8h-12.81a64.844 64.844 0 001.014-10.353H78.67A33.564 33.564 0 0176.617 56.8z" fill="#8078BF"/><path d="M61.441 71.716H28.396a1.316 1.316 0 010-2.632H61.44a1.316 1.316 0 010 2.632z" fill="#C1BDE0"/><path d="M79.66 43.684v5.264a1.316 1.316 0 11-2.632 0v-5.264a5.71 5.71 0 00-5.702-5.703H46.234v13.774h3.574a1.316 1.316 0 110 2.632h-3.574v14.564h-2.632V54.387H18.224c-4.595 0-8.334-3.739-8.334-8.334v-5.264a1.316 1.316 0 112.632 0v5.264a5.71 5.71 0 005.702 5.702h25.378V37.981h-3.86a1.316 1.316 0 110-2.632h31.584c4.595 0 8.334 3.74 8.334 8.335zm-28.82 25.4H38.997a1.316 1.316 0 100 2.631H50.84a1.316 1.316 0 000-2.632z" fill="#FFF5F5"/><path d="M22.81 23.242v12.644c0 .97-.785 1.755-1.754 1.755h-6.169v6.456H7.923v-6.456H1.755c-.97 0-1.755-.786-1.755-1.755V23.242c0-.969.786-1.754 1.755-1.754h19.3c.97 0 1.755.785 1.755 1.754z" fill="#76B6FA"/><path d="M21.055 37.641H4.366a1.754 1.754 0 01-1.754-1.755V23.242c0-.969.785-1.754 1.754-1.754h16.69c.968 0 1.754.785 1.754 1.754v12.644c0 .97-.785 1.755-1.755 1.755z" fill="#86BEFB"/><path d="M19.32 35.03H3.49a.877.877 0 01-.877-.878v-9.175c0-.485.392-.877.877-.877h15.83c.484 0 .877.392.877.877v9.175a.877.877 0 01-.877.877z" fill="#489160"/><path d="M19.321 35.03H8.51V24.1h10.811c.485 0 .877.392.877.877v9.175a.877.877 0 01-.877.877z" fill="#54A770"/><path d="M17.492 45.413H5.319a1.81 1.81 0 010-3.619H17.49a1.81 1.81 0 010 3.619zm5.318-9.527v-2.21H0v2.21c0 .97.786 1.755 1.755 1.755h19.3c.97 0 1.755-.786 1.755-1.755z" fill="#A7D0FC"/><path d="M22.81 33.676v2.21c0 .97-.785 1.755-1.755 1.755H4.366a1.754 1.754 0 01-1.754-1.755v-2.21H22.81z" fill="#C8E2FD"/><path d="M89.787 47.932v12.645c0 .969-.786 1.754-1.755 1.754h-6.168v6.456H74.9v-6.456h-6.168a1.755 1.755 0 01-1.754-1.755V47.933c0-.969.785-1.754 1.754-1.754h19.301c.97 0 1.755.785 1.755 1.755z" fill="#76B6FA"/><path d="M88.032 62.331H71.343c-.97 0-1.755-.785-1.755-1.755V47.933c0-.969.786-1.754 1.755-1.754h16.69c.968 0 1.754.785 1.754 1.755v12.644c0 .969-.786 1.754-1.755 1.754z" fill="#86BEFB"/><path d="M86.298 59.72H70.466a.877.877 0 01-.878-.878v-9.175c0-.484.393-.877.878-.877h15.832c.484 0 .877.393.877.877v9.175a.877.877 0 01-.877.877z" fill="#489160"/><path d="M86.298 59.72H75.487V48.79h10.811c.484 0 .877.393.877.877v9.175a.877.877 0 01-.877.877z" fill="#54A770"/><path d="M84.468 70.103H72.295a1.81 1.81 0 010-3.619h12.173a1.81 1.81 0 010 3.62zm5.319-9.526v-2.21h-22.81v2.21c0 .969.785 1.754 1.754 1.754h19.301c.97 0 1.755-.785 1.755-1.755z" fill="#A7D0FC"/><path d="M89.787 58.367v2.21c0 .969-.786 1.754-1.755 1.754H71.343c-.97 0-1.755-.785-1.755-1.755v-2.21h20.199zM13.16 46.053a2.632 2.632 0 11-5.264 0 2.632 2.632 0 015.264 0zm31.759 21.495a2.632 2.632 0 100 5.263 2.632 2.632 0 000-5.264zm33.669-24.04a2.632 2.632 0 100 5.264 2.632 2.632 0 000-5.264z" fill="#C8E2FD"/><path d="M58.956 39.867v10.528a2.632 2.632 0 01-2.632 2.632h-22.81a2.632 2.632 0 01-2.632-2.632V39.867a2.632 2.632 0 012.631-2.631h22.81a2.632 2.632 0 012.633 2.631z" fill="#3493F8"/><path d="M59.833 44.254H30.004a2.632 2.632 0 01-2.632-2.632V31.094a2.632 2.632 0 012.632-2.632h29.829a2.632 2.632 0 012.632 2.632v10.528a2.632 2.632 0 01-2.632 2.632zm2.632 14.914V48.641a2.632 2.632 0 00-2.632-2.632H30.004a2.632 2.632 0 00-2.632 2.632v10.527a2.632 2.632 0 002.632 2.632h29.829a2.632 2.632 0 002.632-2.632z" fill="#55A4F9"/><path d="M59.833 44.254h-26.32a2.632 2.632 0 01-2.631-2.632V31.094a2.632 2.632 0 012.631-2.632h26.32a2.632 2.632 0 012.632 2.632v10.528a2.632 2.632 0 01-2.632 2.632zm2.632 14.914V48.641a2.632 2.632 0 00-2.632-2.632h-26.32a2.632 2.632 0 00-2.631 2.632v10.527a2.632 2.632 0 002.631 2.632h26.32a2.632 2.632 0 002.632-2.632z" fill="#86BEFB"/><path d="M40.97 40.745c-.726 0-1.316-.59-1.316-1.316v-6.142a1.316 1.316 0 012.632 0v6.142c0 .727-.589 1.316-1.316 1.316zm16.23-8.773a1.755 1.755 0 100 3.509 1.755 1.755 0 000-3.51zm-5.263 5.264a1.755 1.755 0 100 3.509 1.755 1.755 0 000-3.51zM37.68 56.975v-6.141a1.316 1.316 0 00-2.632 0v6.141a1.316 1.316 0 002.632 0zm19.52-7.457a1.755 1.755 0 100 3.509 1.755 1.755 0 000-3.51zm-5.264 0a1.755 1.755 0 100 3.509 1.755 1.755 0 000-3.51z" fill="#FFF5F5"/><path d="M31.759 40.745c-.727 0-1.316-.59-1.316-1.316v-6.142a1.316 1.316 0 012.632 0v6.142c0 .727-.59 1.316-1.316 1.316zm5.922-1.316v-6.142a1.316 1.316 0 00-2.633 0v6.142a1.316 1.316 0 002.633 0zm19.52-2.194a1.755 1.755 0 100 3.51 1.755 1.755 0 000-3.51zm-5.264-5.263a1.755 1.755 0 100 3.509 1.755 1.755 0 000-3.51zM33.075 56.975v-6.141a1.316 1.316 0 00-2.632 0v6.141a1.316 1.316 0 002.632 0zm9.211 0v-6.141a1.316 1.316 0 00-2.632 0v6.141a1.316 1.316 0 002.632 0zm14.915-2.193a1.755 1.755 0 100 3.509 1.755 1.755 0 000-3.51zm-5.264 0a1.755 1.755 0 100 3.509 1.755 1.755 0 000-3.51z" fill="#C8E2FD"/></svg>