<svg width="90" height="90" fill="none" xmlns="http://www.w3.org/2000/svg"><g clip-path="url(#clip0)"><path d="M.988 45.988c0-24.28 19.66-43.967 43.929-44.012 24.158-.045 43.95 19.588 44.094 43.745.072 12.084-4.727 23.047-12.547 31.042a1.484 1.484 0 01-2.05.077C66.617 69.833 56.306 65.57 45 65.57c-11.304 0-21.613 4.262-29.408 11.266a1.484 1.484 0 01-2.048-.064C5.777 68.834.988 57.97.988 45.988z" fill="#55A4F9"/><path d="M51.275 7.019a1.796 1.796 0 01-2.54 0l-3.953-3.952a1.796 1.796 0 012.54-2.54l3.953 3.951a1.796 1.796 0 010 2.54zm-4.388 1.873H39.7a1.796 1.796 0 100 3.593h7.186a1.796 1.796 0 100-3.593z" fill="#A7D0FC"/><path d="M78.233 38.084v4.67a2.155 2.155 0 01-2.155 2.156H75a2.156 2.156 0 01-2.156-2.155v-4.671c0-1.19.965-2.156 2.156-2.156h1.078c1.19 0 2.155.965 2.155 2.156zM13.475 21.557v3.64a2.156 2.156 0 00-1.709 2.108v10.06c0 1.037.733 1.903 1.709 2.11V76.7a44.26 44.26 0 005.32 4.651c.994.738 2.404.039 2.404-1.2V21.557c0-2.977 2.963-5.39 2.963-5.39h-5.298a5.389 5.389 0 00-5.39 5.39z" fill="#453D83"/><path d="M65.587 83.538c-23.91 5.68-46.815-12.63-46.815-37.206V21.557a5.389 5.389 0 015.39-5.39h46.974a5.389 5.389 0 015.389 5.39V76.7a44.255 44.255 0 01-5.298 4.635c-1.177.875-3.142 1.61-5.64 2.203z" fill="#5F55AF"/><path d="M27.754 23.353V81.16c0 2.542-2.76 4.123-4.954 2.84a44.012 44.012 0 01-4.028-2.665V23.353c0-.992.804-1.796 1.796-1.796h5.39c.992 0 1.796.804 1.796 1.796z" fill="#A7D0FC"/><path d="M71.228 23.353v57.982A43.816 43.816 0 0145 90a43.806 43.806 0 01-22.634-6.259V23.353c0-.992.804-1.796 1.796-1.796h45.27c.992 0 1.796.804 1.796 1.796z" fill="#E9F3FE"/><path d="M64.718 7.186c9.5 0 17.202 7.702 17.202 17.202 0 9.5-7.702 17.203-17.203 17.203-9.5 0-17.202-7.702-17.202-17.203 0-9.5 7.702-17.202 17.203-17.202z" fill="#EAC23F"/><path d="M64.717 10.778c7.517 0 13.61 6.094 13.61 13.61 0 7.517-6.093 13.61-13.61 13.61-7.516 0-13.61-6.093-13.61-13.61 0-7.516 6.094-13.61 13.61-13.61z" fill="#FF7C48"/><path d="M76.446 31.296a13.603 13.603 0 01-11.729 6.702c-7.516 0-13.61-6.093-13.61-13.61 0-4.995 2.692-9.362 6.703-11.729a13.547 13.547 0 00-1.88 6.908c0 7.516 6.093 13.61 13.609 13.61 2.521 0 4.883-.686 6.907-1.881z" fill="#D1462A"/><path d="M45.718 28.742c0 .993-.804 1.797-1.796 1.797H25.958a1.796 1.796 0 110-3.593h17.964c.992 0 1.796.804 1.796 1.796zm-19.76 8.982h8.982a1.796 1.796 0 100-3.592h-8.982a1.796 1.796 0 100 3.593zm15.27 8.084h-15.27a1.796 1.796 0 100 3.593h15.27a1.796 1.796 0 100-3.593zm-15.27 10.779h8.982a1.796 1.796 0 100-3.593h-8.982a1.796 1.796 0 100 3.593zm14.371 5.389H25.958a1.796 1.796 0 100 3.593h14.371a1.796 1.796 0 100-3.593zm-5.39 7.186h-8.981a1.796 1.796 0 100 3.592h8.982a1.796 1.796 0 100-3.592z" fill="#76B6FA"/><path d="M67.275 48.503v5.39a3.593 3.593 0 01-3.592 3.592h-5.39a3.593 3.593 0 01-3.592-3.593v-5.389a3.593 3.593 0 013.593-3.593h5.389a3.593 3.593 0 013.592 3.593zm-3.592 12.575h-5.39a3.593 3.593 0 00-3.592 3.593v5.389a3.593 3.593 0 003.593 3.593h5.389a3.593 3.593 0 003.592-3.593v-5.39a3.593 3.593 0 00-3.592-3.592z" fill="#A7D0FC"/><path d="M51.939 90h-3.556a3.593 3.593 0 01-3.593-3.593v-2.38c0-1.024.83-1.854 1.854-1.854h6.847c1.073 0 1.943.87 1.943 1.943v2.389A3.495 3.495 0 0151.939 90z" fill="#D1462A"/><path d="M52.155 90a3.593 3.593 0 01-3.593-3.593v-4.234h5.063c1.173 0 2.123.95 2.123 2.123v2.111A3.593 3.593 0 0152.155 90z" fill="#FF7C48"/><path d="M52.618 42.927H47.92a3.13 3.13 0 01-3.13-3.13l2.893-6.031a11.89 11.89 0 012.428-.284c.92-.012 4.235 9.445 2.506 9.445z" fill="#EAC23F"/><path d="M52.618 42.927l-3.426-3.13.384-6.762 3.28.73 2.893 6.031a3.131 3.131 0 01-3.131 3.131z" fill="#F1DE96"/><path d="M50.755 29.389l2.1 4.376h-5.171l2.1-4.376a.539.539 0 01.971 0z" fill="#453D83"/><path d="M55.748 83.738H44.79V39.796h10.958v43.942z" fill="#EA552D"/><path d="M49.147 83.738h-4.402V39.796h4.402v43.942zm3.143-2.951a1.347 1.347 0 01-1.347-1.347V44.095a1.347 1.347 0 112.695 0V79.44c0 .744-.604 1.347-1.348 1.347z" fill="#BC3F2A"/><path d="M55.21 85.932h-9.881a1.347 1.347 0 010-2.694h9.88a1.347 1.347 0 010 2.694z" fill="#FFB52D"/><path d="M55.21 85.932h-6.467a1.347 1.347 0 010-2.694h6.467a1.347 1.347 0 110 2.694z" fill="#EDD578"/><path d="M77.648 17.305L64.945 32.831a1.8 1.8 0 01-1.382.66h-.008a1.797 1.797 0 01-1.38-.647l-7.058-8.469a1.797 1.797 0 012.76-2.3l5.665 6.797L74.867 15.03a1.796 1.796 0 112.78 2.275z" fill="#FFF5F5"/></g><defs><clipPath id="clip0"><path fill="#fff" d="M0 0h90v90H0z"/></clipPath></defs></svg>