<svg width="90" height="90" fill="none" xmlns="http://www.w3.org/2000/svg"><path d="M45 90c24.853 0 45-20.147 45-45S69.853 0 45 0 0 20.147 0 45s20.147 45 45 45z" fill="#0680AE"/><path d="M70.453.992a7.391 7.391 0 10-7.391 12.801A7.391 7.391 0 0070.453.992zm-5.543 9.6a3.696 3.696 0 113.695-6.4 3.696 3.696 0 01-3.695 6.4z" fill="#FDD36E"/><path d="M61.511 18.191c-1.449 0-2.379-1.579-1.644-2.851l3.548-6.145a1.9 1.9 0 113.292 1.9l-3.548 6.146a1.9 1.9 0 01-1.648.95z" fill="#F7A15F"/><path d="M26.397 86.36a9.517 9.517 0 100-19.034 9.517 9.517 0 000 19.034z" fill="#96DFF8"/><path d="M26.397 76.843a9.51 9.51 0 014.759-8.24 9.517 9.517 0 100 16.48 9.51 9.51 0 01-4.759-8.24z" fill="#80CBF0"/><path d="M62.77 13.841c-12.961-7.483-29.69-3-37.173 9.961l-9.743 16.876c-3.892 6.74-10.242 9.393-14.526 10.435-.328.08-.615.222-.856.407.217 1.496.508 2.968.868 4.413 4.854 4.163 13.642 11.009 26.49 18.427 13.175 7.606 23.692 11.815 29.653 13.884a44.641 44.641 0 003.732-1.257c.12-.4.132-.844-.001-1.299-1.24-4.231-2.117-11.056 1.775-17.797l9.743-16.876c7.483-12.962 3-29.69-9.961-37.174z" fill="#FDD36E"/><path d="M25.598 23.802l-9.743 16.876c-3.892 6.74-10.242 9.393-14.526 10.435-.328.08-.615.222-.856.407a44.82 44.82 0 00.868 4.413c1.6 1.372 3.627 3.036 6.087 4.915.077-.973.727-1.905 1.801-2.19 4.347-1.15 10.809-3.996 14.86-11.014l10.143-17.568c6.856-11.875 20.828-17.106 32.916-13.09-12.92-11.395-33.046-7.914-41.55 6.816z" fill="#FBB659"/><path d="M60.343 75.727c-6.185-2.36-15.218-6.317-26.046-12.568-10.827-6.252-18.77-12.096-23.907-16.272-3.108 2.368-6.464 3.594-9.062 4.226-.328.08-.615.222-.856.407.217 1.496.508 2.968.868 4.413 4.854 4.163 13.642 11.009 26.49 18.427 13.175 7.606 23.692 11.815 29.653 13.884a44.716 44.716 0 003.732-1.257c.12-.4.132-.844-.001-1.299-.752-2.566-1.368-6.085-.871-9.961z" fill="#FBB659"/><path d="M10.39 46.887c-.398.26-2.38 1.904-5.89 3.242-2.795 1.064-3.289.825-4.028 1.39.217 1.497.508 2.969.868 4.414 2.106 1.805 3.91 3.242 6.087 4.915.077-.973.727-1.905 1.801-2.19 2.841-.751 6.586-2.229 9.97-5.121a160.918 160.918 0 01-8.808-6.65z" fill="#F7A15F"/><path d="M67.146 41.364a3.98 3.98 0 100-7.961 3.98 3.98 0 000 7.96zm-.388-10.748a2.034 2.034 0 100-4.068 2.034 2.034 0 000 4.068z" fill="#FCDC95"/></svg>