<svg width="90" height="90" fill="none" xmlns="http://www.w3.org/2000/svg"><g clip-path="url(#clip0)"><path d="M86.976 45.988c0 10.07-1.435 16.655-7.126 24.072-.718.936-1.383 4.538-2.173 5.412a44.29 44.29 0 01-4.833 4.602H53.866a15.107 15.107 0 00-14.075 9.621c-10.005-1.18-18.982-5.715-25.775-12.45V41.18a15.962 15.962 0 00-8.737-14.233 43.813 43.813 0 013.024-5.332c.357-.538 2.904-1.067 3.284-1.587C17.152 12.395 22.939 8.48 32.214 5.689c.577-.174 1.16-2.178 1.748-2.329a44.404 44.404 0 0111.133-1.384c17.44.037 32.497 10.217 39.588 24.954.207.43-1.134 2.092-.94 2.531 2.396 5.43 3.233 10.21 3.233 16.527z" fill="#453D83"/><path d="M34.042 3.351v15.511a2.695 2.695 0 01-2.695 2.695H8.386c5.938-8.881 15.02-15.48 25.656-18.206z" fill="#958FCA"/><path d="M29.55 10.33c0 .744-.602 1.347-1.347 1.347h-10.77a44.247 44.247 0 013.732-2.695h7.038c.745 0 1.348.603 1.348 1.347zm-5.838 3.143h-8.374a44.302 44.302 0 00-2.396 2.36c.238.208.55.335.89.335h9.88a1.347 1.347 0 100-2.695z" fill="#ABA6D5"/><path d="M44.29 89.994a44.401 44.401 0 01-4.5-.3v-31.31a2.695 2.695 0 012.695-2.695h4.805a2.695 2.695 0 00-2.694 2.694v31.31a.301.301 0 01-.305.301z" fill="#FF7C48"/><path d="M72.844 58.383v21.691a43.83 43.83 0 01-28.742 9.917V58.383a2.695 2.695 0 012.694-2.694H70.15a2.695 2.695 0 012.694 2.694z" fill="#FF956A"/><path d="M65.48 80.39c0 .743-.604 1.347-1.348 1.347H49.761a1.347 1.347 0 110-2.695h14.371c.744 0 1.347.603 1.347 1.347zm-10.33 3.143h-5.39a1.347 1.347 0 100 2.695h5.39a1.347 1.347 0 100-2.695zm-5.39-10.779h14.372a1.347 1.347 0 100-2.694H49.761a1.347 1.347 0 100 2.694zm0 4.492h9.88a1.347 1.347 0 100-2.695h-9.88a1.347 1.347 0 100 2.695zm-7.634-17.628c0-.558.452-1.01 1.01-1.01h3.369a1.01 1.01 0 110 2.02h-3.369a1.01 1.01 0 01-1.01-1.01zm4.379 2.526h-3.369a1.01 1.01 0 100 2.021h3.369a1.01 1.01 0 100-2.02z" fill="#EA552D"/><path d="M80.21 26.946h4.48a43.838 43.838 0 014.322 19.042c0 11.342-4.29 21.68-11.335 29.484a2.69 2.69 0 01-.162-.921V29.64a2.695 2.695 0 012.695-2.695z" fill="#54A770"/><path d="M84.52 26.946h.17a43.838 43.838 0 014.322 19.042 43.806 43.806 0 01-7.186 24.11V29.641a2.695 2.695 0 012.695-2.695z" fill="#80BF95"/><path d="M79.85 31.38c0-.557.453-1.01 1.01-1.01h3.37a1.01 1.01 0 110 2.021h-3.37a1.01 1.01 0 01-1.01-1.01zm4.38 2.527h-3.37a1.01 1.01 0 100 2.021h3.37a1.01 1.01 0 100-2.02z" fill="#489160"/><path d="M34.042 29.64v44.91a2.695 2.695 0 01-2.695 2.696H14.016C5.97 69.27.988 58.21.988 45.988c0-6.82 1.552-13.28 4.321-19.042h26.038a2.695 2.695 0 012.695 2.695z" fill="#E9CC5A"/><path d="M34.042 29.64v44.91a2.695 2.695 0 01-2.695 2.696h-17.33A44.119 44.119 0 015.3 65.009V29.641a2.695 2.695 0 012.694-2.695h23.354a2.695 2.695 0 012.694 2.695z" fill="#EDD578"/><path d="M31.347 59.281v12.575c0 .992-.804 1.797-1.796 1.797H10.768a43.898 43.898 0 01-7.98-15.164 1.796 1.796 0 011.613-1.004h25.15c.992 0 1.796.804 1.796 1.796zm-1.796-21.556H4.4c-.992 0-1.796.804-1.796 1.796v12.575c0 .992.804 1.796 1.796 1.796h25.15c.992 0 1.796-.804 1.796-1.796V39.52c0-.992-.804-1.797-1.796-1.797z" fill="#EAC23F"/><path d="M7.994 34.918a1.01 1.01 0 01-1.01 1.01h-3.37a1.01 1.01 0 110-2.02h3.368a1.01 1.01 0 011.011 1.01zm-1.01-2.527a1.01 1.01 0 100-2.02H3.838c-.24.63-.465 1.269-.676 1.914.136.068.29.106.452.106h3.368zm15.381 11.352c0 .744-.603 1.347-1.347 1.347H6.647a1.347 1.347 0 110-2.695h14.37c.745 0 1.348.603 1.348 1.347zm-5.838 3.143h-9.88a1.347 1.347 0 100 2.695h9.88a1.347 1.347 0 100-2.695zm2.38 19.85c-.612 0-1.21.042-1.788.121a2.342 2.342 0 01-2.403-1.286c-1.046-2.097-2.603-3.426-4.342-3.426-1.865 0-3.521 1.53-4.562 3.897a44.072 44.072 0 004.956 7.61h17.097a4.27 4.27 0 00.07-.763c0-3.398-4.043-6.152-9.028-6.152zm9.117-7.174a1.347 1.347 0 100 2.695 1.347 1.347 0 000-2.695zm0-19.861a1.347 1.347 0 100 2.694 1.347 1.347 0 000-2.694z" fill="#C3A01A"/><path d="M70.15 50.3H42.485a2.695 2.695 0 01-2.695-2.695V2.695A2.695 2.695 0 0142.485 0H70.15a2.695 2.695 0 012.694 2.695v44.91a2.695 2.695 0 01-2.694 2.694z" fill="#76B6FA"/><path d="M70.15 50.3H46.796a2.695 2.695 0 01-2.694-2.695V2.695A2.695 2.695 0 0146.796 0H70.15a2.695 2.695 0 012.694 2.695v44.91a2.695 2.695 0 01-2.694 2.694z" fill="#A7D0FC"/><path d="M47.515 30.137a1.4 1.4 0 011.395-1.395h16.97a1.4 1.4 0 011.396 1.395c0 .768-.628 1.395-1.395 1.395H48.91a1.4 1.4 0 01-1.395-1.395zm18.366 3.72H48.91c-.767 0-1.395.628-1.395 1.395s.628 1.395 1.395 1.395h16.97c.768 0 1.396-.628 1.396-1.395s-.628-1.395-1.395-1.395z" fill="#76B6FA"/><path d="M62.045 44.805h-9.3a1.749 1.749 0 01-1.743-1.744 1.75 1.75 0 011.744-1.744h9.299c.959 0 1.743.785 1.743 1.744s-.784 1.744-1.743 1.744zm-14.53-40.37a1.01 1.01 0 00-1.01-1.01h-3.369a1.01 1.01 0 100 2.02h3.369a1.01 1.01 0 001.01-1.01zm-1.01 4.547h-3.369a1.01 1.01 0 110-2.02h3.369a1.01 1.01 0 110 2.02zm2.357 6.34a8.533 8.533 0 1113.657 6.824c-.183.138-10.064.138-10.248 0a8.52 8.52 0 01-3.409-6.824z" fill="#3493F8"/><path d="M62.52 20.696v1.45a8.494 8.494 0 01-5.125 1.71 8.494 8.494 0 01-5.124-1.71v-1.45a3.416 3.416 0 013.416-3.417h3.417a3.416 3.416 0 013.416 3.417z" fill="#C8E2FD"/><path d="M54.406 12.582a2.99 2.99 0 115.979 0 2.99 2.99 0 01-5.979 0zm0 8.114a2.6 2.6 0 001.497 2.352 8.471 8.471 0 002.56.74 8.487 8.487 0 004.056-1.642v-1.45a3.416 3.416 0 00-3.416-3.417h-1.28a3.416 3.416 0 00-3.417 3.417z" fill="#E9F3FE"/><path d="M60.385 12.582a2.99 2.99 0 01-1.922 2.793 2.99 2.99 0 010-5.586 2.99 2.99 0 011.922 2.793z" fill="#FFF5F5"/></g><defs><clipPath id="clip0"><path fill="#fff" d="M0 0h90v90H0z"/></clipPath></defs></svg>