<svg width="212" height="40" fill="none" xmlns="http://www.w3.org/2000/svg"><path d="M62.596 26.18c-1.284 0-2.442-.276-3.474-.828a6.283 6.283 0 01-2.43-2.322c-.588-.996-.882-2.106-.882-3.33 0-1.224.294-2.328.882-3.312a6.116 6.116 0 012.43-2.322c1.032-.564 2.19-.846 3.474-.846 1.284 0 2.442.282 3.474.846a6.154 6.154 0 012.43 2.304c.588.984.882 2.094.882 3.33 0 1.236-.294 2.346-.882 3.33a6.283 6.283 0 01-2.43 2.322c-1.032.552-2.19.828-3.474.828zm0-2.052c.84 0 1.596-.186 2.268-.558a4.183 4.183 0 001.584-1.584c.384-.684.576-1.446.576-2.286 0-.84-.192-1.596-.576-2.268a4.022 4.022 0 00-1.584-1.584c-.672-.384-1.428-.576-2.268-.576-.84 0-1.596.192-2.268.576-.672.372-1.2.9-1.584 1.584-.384.672-.576 1.428-.576 2.268 0 .84.192 1.602.576 2.286.384.672.912 1.2 1.584 1.584.672.372 1.428.558 2.268.558zm19.262-.036v4.05h-2.106V26h-7.416v2.142h-2.088v-4.05h.45c.612-.024 1.026-.414 1.242-1.17.228-.768.378-1.848.45-3.24l.126-3.294h7.92v7.704h1.422zm-7.416-4.248c-.048 1.104-.138 2.004-.27 2.7-.132.696-.372 1.212-.72 1.548h4.734v-5.796h-3.69l-.054 1.548zm9.606-3.456h2.25v3.906h4.842v-3.906h2.25V26h-2.25v-3.798h-4.842V26h-2.25v-9.612zm16.821 9.738c-.972 0-1.848-.21-2.628-.63a4.676 4.676 0 01-1.836-1.746c-.432-.756-.648-1.608-.648-2.556s.216-1.794.648-2.538a4.676 4.676 0 011.836-1.746c.78-.42 1.656-.63 2.628-.63.984 0 1.866.21 2.646.63a4.55 4.55 0 011.818 1.746c.444.744.666 1.59.666 2.538 0 .948-.222 1.8-.666 2.556a4.55 4.55 0 01-1.818 1.746c-.78.42-1.662.63-2.646.63zm0-1.926c.828 0 1.512-.276 2.052-.828.54-.552.81-1.278.81-2.178 0-.9-.27-1.626-.81-2.178s-1.224-.828-2.052-.828c-.828 0-1.512.276-2.052.828-.528.552-.792 1.278-.792 2.178 0 .9.264 1.626.792 2.178.54.552 1.224.828 2.052.828zm11.529-2.052h-1.746V26h-2.25v-9.612h2.25v3.888h1.8l2.844-3.888h2.412l-3.492 4.626L117.942 26h-2.646l-2.898-3.852zm16.023-5.76V26h-2.25v-7.704h-3.6l-.09 1.908c-.06 1.272-.18 2.34-.36 3.204-.168.852-.462 1.53-.882 2.034-.408.492-.972.738-1.692.738-.336 0-.75-.066-1.242-.198l.108-1.89c.168.036.312.054.432.054.456 0 .798-.18 1.026-.54.228-.372.372-.81.432-1.314.072-.516.132-1.248.18-2.196l.162-3.708h7.776zm6.792-.108c1.416 0 2.496.342 3.24 1.026.756.672 1.134 1.692 1.134 3.06V26h-2.124v-1.17c-.276.42-.672.744-1.188.972-.504.216-1.116.324-1.836.324s-1.35-.12-1.89-.36c-.54-.252-.96-.594-1.26-1.026a2.686 2.686 0 01-.432-1.494c0-.864.318-1.554.954-2.07.648-.528 1.662-.792 3.042-.792h2.484v-.144c0-.672-.204-1.188-.612-1.548-.396-.36-.99-.54-1.782-.54-.54 0-1.074.084-1.602.252a3.925 3.925 0 00-1.314.702l-.882-1.638c.504-.384 1.11-.678 1.818-.882a8.089 8.089 0 012.25-.306zm-.306 8.208c.564 0 1.062-.126 1.494-.378.444-.264.756-.636.936-1.116v-1.116h-2.322c-1.296 0-1.944.426-1.944 1.278 0 .408.162.732.486.972.324.24.774.36 1.35.36zm12.018 1.638c-.996 0-1.89-.21-2.682-.63a4.645 4.645 0 01-1.854-1.746c-.444-.756-.666-1.608-.666-2.556s.222-1.794.666-2.538a4.676 4.676 0 011.836-1.746c.792-.42 1.692-.63 2.7-.63.948 0 1.776.192 2.484.576.72.384 1.26.936 1.62 1.656l-1.728 1.008a2.656 2.656 0 00-1.044-.99 2.72 2.72 0 00-1.35-.342c-.84 0-1.536.276-2.088.828-.552.54-.828 1.266-.828 2.178 0 .912.27 1.644.81 2.196.552.54 1.254.81 2.106.81a2.84 2.84 0 001.35-.324c.42-.228.768-.564 1.044-1.008l1.728 1.008a3.936 3.936 0 01-1.638 1.674c-.708.384-1.53.576-2.466.576zm10.499 0c-.996 0-1.89-.21-2.682-.63a4.645 4.645 0 01-1.854-1.746c-.444-.756-.666-1.608-.666-2.556s.222-1.794.666-2.538a4.676 4.676 0 011.836-1.746c.792-.42 1.692-.63 2.7-.63.948 0 1.776.192 2.484.576.72.384 1.26.936 1.62 1.656L159.8 19.52a2.656 2.656 0 00-1.044-.99 2.72 2.72 0 00-1.35-.342c-.84 0-1.536.276-2.088.828-.552.54-.828 1.266-.828 2.178 0 .912.27 1.644.81 2.196.552.54 1.254.81 2.106.81a2.84 2.84 0 001.35-.324c.42-.228.768-.564 1.044-1.008l1.728 1.008a3.936 3.936 0 01-1.638 1.674c-.708.384-1.53.576-2.466.576zm6.265-9.738h2.25v3.906h4.842v-3.906h2.25V26h-2.25v-3.798h-4.842V26h-2.25v-9.612zm12.537 0h2.25v6.336l5.31-6.336h2.052V26h-2.25v-6.336L178.296 26h-2.07v-9.612zm16.815 5.76h-1.746V26h-2.25v-9.612h2.25v3.888h1.8l2.844-3.888h2.412l-3.492 4.626L198.585 26h-2.646l-2.898-3.852zm7.311-5.76h2.25v6.336l5.31-6.336h2.052V26h-2.25v-6.336L202.422 26h-2.07v-9.612z" fill="#F79A38"/><circle cx="20" cy="20" r="20" fill="#F79A38"/><path d="M26.238 22.793c.524-.525.6-1.274.15-2.024-.375-.6-1.05-.9-1.8-.75-.3.075-.6.225-.899.45-2.324 1.574-5.472 1.5-7.796-.075l-.45-.225c-.824-.375-1.649-.225-2.099.525-.524.75-.45 1.574.225 2.249.15.15.3.225.375.375l.075.074c1.05.825 2.324 1.35 3.973 1.575l-.975.974-2.548 2.549c-.225.225-.525.6-.525 1.124 0 .675.375 1.35 1.05 1.65.224.15.45.15.674.15.375 0 .825-.15 1.125-.525l2.923-2.924.075-.075s.075 0 .075.075c.6.675 1.274 1.274 1.874 1.95l.9.899c.374.375.674.524 1.124.524.675.075 1.424-.374 1.724-1.05.3-.599.15-1.348-.375-1.798-.75-.75-1.499-1.574-2.324-2.324l-1.274-1.274c.675-.075 1.424-.225 2.099-.525 1.124-.375 1.949-.9 2.624-1.574z" fill="#fff"/><path d="M19.791 20.694c3.223 0 5.847-2.549 5.847-5.772 0-1.574-.6-3.074-1.724-4.198C22.789 9.6 21.365 9 19.866 9c-3.223 0-5.772 2.624-5.847 5.772 0 1.574.6 2.998 1.724 4.123 1.05 1.2 2.474 1.799 4.048 1.799zm-1.65-7.496c.45-.45 1.05-.675 1.65-.675 1.35 0 2.324 1.05 2.324 2.324 0 1.35-1.05 2.324-2.324 2.324-1.35 0-2.324-1.05-2.324-2.324 0-.6.225-1.2.675-1.65z" fill="#fff"/><path d="M26.238 22.793c.524-.525.6-1.274.15-2.024-.375-.6-1.05-.9-1.8-.75-.3.075-.6.225-.899.45-2.324 1.574-5.472 1.5-7.796-.075l-.45-.225c-.824-.375-1.649-.225-2.099.525-.524.75-.45 1.574.225 2.249.15.15.3.225.375.375l.075.074c1.05.825 2.324 1.35 3.973 1.575l-.975.974-2.548 2.549c-.225.225-.525.6-.525 1.124 0 .675.375 1.35 1.05 1.65.224.15.45.15.674.15.375 0 .825-.15 1.125-.525l2.923-2.924.075-.075s.075 0 .075.075c.6.675 1.274 1.274 1.874 1.95l.9.899c.374.375.674.524 1.124.524.675.075 1.424-.374 1.724-1.05.3-.599.15-1.348-.375-1.798-.75-.75-1.499-1.574-2.324-2.324l-1.274-1.274c.675-.075 1.424-.225 2.099-.525 1.124-.375 1.949-.9 2.624-1.574z" fill="#fff"/></svg>