<svg width="219" height="48" fill="none" xmlns="http://www.w3.org/2000/svg"><path d="M92.572 30l-.018-9.18L88 28.47h-.828l-4.554-7.596V30H80.89V17.4h1.476l5.256 8.856 5.184-8.856h1.476L94.3 30h-1.728zm13.879-9.54l-4.626 10.494c-.408.972-.888 1.656-1.44 2.052-.54.396-1.194.594-1.962.594-.468 0-.924-.078-1.368-.234a2.711 2.711 0 01-1.08-.648l.738-1.296c.492.468 1.062.702 1.71.702.42 0 .768-.114 1.044-.342.288-.216.546-.594.774-1.134l.306-.666-4.212-9.522h1.8l3.33 7.632 3.294-7.632h1.692zm8.859-1.494v4.392h6.318v1.548h-6.318V30h-1.8V17.4h8.892v1.566h-7.092zm12.694 1.404c1.32 0 2.328.324 3.024.972.708.648 1.062 1.614 1.062 2.898V30h-1.638v-1.26c-.288.444-.702.786-1.242 1.026-.528.228-1.158.342-1.89.342-1.068 0-1.926-.258-2.574-.774-.636-.516-.954-1.194-.954-2.034 0-.84.306-1.512.918-2.016.612-.516 1.584-.774 2.916-.774h2.736v-.342c0-.744-.216-1.314-.648-1.71-.432-.396-1.068-.594-1.908-.594-.564 0-1.116.096-1.656.288a4.14 4.14 0 00-1.368.738l-.72-1.296a5.105 5.105 0 011.764-.9 7.191 7.191 0 012.178-.324zm-.396 8.406c.66 0 1.23-.144 1.71-.432.48-.3.828-.72 1.044-1.26v-1.332h-2.664c-1.464 0-2.196.492-2.196 1.476 0 .48.186.858.558 1.134.372.276.888.414 1.548.414zm19.794-8.406c1.2 0 2.148.348 2.844 1.044.708.696 1.062 1.728 1.062 3.096V30h-1.728v-5.292c0-.924-.216-1.62-.648-2.088-.42-.468-1.026-.702-1.818-.702-.876 0-1.572.276-2.088.828-.516.54-.774 1.32-.774 2.34V30h-1.728v-5.292c0-.924-.216-1.62-.648-2.088-.42-.468-1.026-.702-1.818-.702-.876 0-1.572.276-2.088.828-.516.54-.774 1.32-.774 2.34V30h-1.728v-9.54h1.656v1.422a3.282 3.282 0 011.368-1.116c.564-.264 1.206-.396 1.926-.396.744 0 1.404.15 1.98.45.576.3 1.02.738 1.332 1.314.36-.552.858-.984 1.494-1.296.648-.312 1.374-.468 2.178-.468zm7.265.09h1.728V30h-1.728v-9.54zm.864-1.836c-.336 0-.618-.108-.846-.324a1.077 1.077 0 01-.324-.792c0-.312.108-.576.324-.792a1.15 1.15 0 01.846-.342c.336 0 .612.108.828.324a.994.994 0 01.342.774c0 .324-.114.6-.342.828-.216.216-.492.324-.828.324zm4.344-1.98h1.728V30h-1.728V16.644zm13.649 3.816l-4.626 10.494c-.408.972-.888 1.656-1.44 2.052-.54.396-1.194.594-1.962.594-.468 0-.924-.078-1.368-.234a2.711 2.711 0 01-1.08-.648l.738-1.296c.492.468 1.062.702 1.71.702.42 0 .768-.114 1.044-.342.288-.216.546-.594.774-1.134l.306-.666-4.212-9.522h1.8l3.33 7.632 3.294-7.632h1.692zm9.561-1.494h-4.32V17.4h10.422v1.566h-4.32V30h-1.782V18.966zm9.418 3.096c.3-.552.744-.972 1.332-1.26.588-.288 1.302-.432 2.142-.432v1.674a3.374 3.374 0 00-.396-.018c-.936 0-1.674.282-2.214.846-.528.552-.792 1.344-.792 2.376V30h-1.728v-9.54h1.656v1.602zm14.317 3.222c0 .132-.012.306-.036.522h-7.74c.108.84.474 1.518 1.098 2.034.636.504 1.422.756 2.358.756 1.14 0 2.058-.384 2.754-1.152l.954 1.116a4.166 4.166 0 01-1.62 1.152c-.636.264-1.35.396-2.142.396-1.008 0-1.902-.204-2.682-.612a4.55 4.55 0 01-1.818-1.746c-.42-.744-.63-1.584-.63-2.52 0-.924.204-1.758.612-2.502.42-.744.99-1.32 1.71-1.728.732-.42 1.554-.63 2.466-.63.912 0 1.722.21 2.43.63.72.408 1.278.984 1.674 1.728.408.744.612 1.596.612 2.556zm-4.716-3.456c-.828 0-1.524.252-2.088.756-.552.504-.876 1.164-.972 1.98h6.12c-.096-.804-.426-1.458-.99-1.962-.552-.516-1.242-.774-2.07-.774zm15.918 3.456c0 .132-.012.306-.036.522h-7.74c.108.84.474 1.518 1.098 2.034.636.504 1.422.756 2.358.756 1.14 0 2.058-.384 2.754-1.152l.954 1.116a4.166 4.166 0 01-1.62 1.152c-.636.264-1.35.396-2.142.396-1.008 0-1.902-.204-2.682-.612a4.55 4.55 0 01-1.818-1.746c-.42-.744-.63-1.584-.63-2.52 0-.924.204-1.758.612-2.502.42-.744.99-1.32 1.71-1.728.732-.42 1.554-.63 2.466-.63.912 0 1.722.21 2.43.63.72.408 1.278.984 1.674 1.728.408.744.612 1.596.612 2.556zm-4.716-3.456c-.828 0-1.524.252-2.088.756-.552.504-.876 1.164-.972 1.98h6.12c-.096-.804-.426-1.458-.99-1.962-.552-.516-1.242-.774-2.07-.774z" fill="#69A042"/><path fill-rule="evenodd" clip-rule="evenodd" d="M32.205 36.885c-.125-7.455 3.699-14.753 10.627-18.746 6.78-3.907 14.82-3.661 21.165-.053.125 7.456-3.699 14.753-10.626 18.746-6.78 3.907-14.821 3.661-21.166.053z" fill="#6EC66C" fill-opacity=".5"/><path fill-rule="evenodd" clip-rule="evenodd" d="M50.326 4.741c3.843 6.394 4.187 14.622.187 21.538-3.914 6.768-11 10.568-18.303 10.61-3.843-6.395-4.187-14.623-.187-21.538C35.938 8.583 43.024 4.782 50.326 4.74z" fill="#6EC66C" fill-opacity=".5"/><path fill-rule="evenodd" clip-rule="evenodd" d="M32.205 36.89c-6.405 3.836-14.649 4.18-21.576.187C3.849 33.17.04 26.096 0 18.807c6.406-3.836 14.649-4.18 21.576-.187 6.78 3.907 10.588 10.982 10.63 18.27z" fill="#6EC66C" fill-opacity=".5"/><path fill-rule="evenodd" clip-rule="evenodd" d="M13.377 5.156c7.47-.125 14.78 3.692 18.78 10.607 3.915 6.768 3.668 14.794.053 21.127-7.469.125-14.78-3.692-18.78-10.607-3.914-6.768-3.668-14.794-.053-21.127z" fill="#6EC66C" fill-opacity=".5"/><path fill-rule="evenodd" clip-rule="evenodd" d="M31.804 0c6.53 3.62 10.95 10.574 10.95 18.559 0 7.815-4.234 14.643-10.537 18.323-6.53-3.62-10.95-10.574-10.95-18.559 0-7.815 4.234-14.643 10.537-18.323z" fill="#6EC66C" fill-opacity=".5"/><path fill-rule="evenodd" clip-rule="evenodd" d="M32.228 36.888c3.614-6.332 3.86-14.358-.054-21.125a22.191 22.191 0 00-.188-.319c-3.943 6.896-3.585 15.08.24 21.444h.002z" fill="#fff"/><path fill-rule="evenodd" clip-rule="evenodd" d="M36.813 46.053c-1.317-3.602-2.177-6.43-2.747-9.255 6.634-.612 12.88-4.321 16.464-10.52a21.084 21.084 0 002.847-10.984c-3.58.013-7.206.93-10.529 2.845a21.135 21.135 0 00-7.827 7.842 21.089 21.089 0 00-3.035-10.537 21.083 21.083 0 00-2.797 10.624 21.136 21.136 0 00-7.596-7.448 21.182 21.182 0 00-10.996-2.842c.014 3.572.933 7.19 2.85 10.505 3.667 6.339 10.116 10.074 16.918 10.557-.576 3.158-1.408 5.897-2.714 9.213 2.747 1.266 6.465 1.259 9.162 0z" fill="#6EC66C" fill-opacity=".5"/><path fill-rule="evenodd" clip-rule="evenodd" d="M42.754 18.559c0-.125-.001-.249-.003-.373a21.142 21.142 0 00-9.565 11.955c-.06-.853-.109-1.746-.15-2.692a1.996 1.996 0 00-.834-3.81 1.996 1.996 0 00-.823 3.815 149.31 149.31 0 01-.22 2.97 21.141 21.141 0 00-9.892-11.979c.041 7.222 3.697 13.589 9.253 17.39-.579 3.596-1.443 6.555-2.886 10.219 2.747 1.265 6.465 1.258 9.162 0-1.47-4.02-2.37-7.075-2.934-10.237 5.384-3.848 8.892-10.144 8.892-17.258z" fill="#6EC66C"/></svg>