<svg width="551" height="104" fill="none" xmlns="http://www.w3.org/2000/svg"><path d="M214.192 49l-.048-24.48L202 44.92h-2.208l-12.144-20.256V49h-4.608V15.4h3.936l14.016 23.616L214.816 15.4h3.936L218.8 49h-4.608zm37.012-25.44l-12.336 27.984c-1.088 2.592-2.368 4.416-3.84 5.472-1.44 1.056-3.184 1.584-5.232 1.584-1.248 0-2.464-.208-3.648-.624-1.152-.384-2.112-.96-2.88-1.728l1.968-3.456c1.312 1.248 2.832 1.872 4.56 1.872 1.12 0 2.048-.304 2.784-.912.768-.576 1.456-1.584 2.064-3.024l.816-1.776-11.232-25.392h4.8l8.88 20.352 8.784-20.352h4.512zm23.623-3.984v11.712h16.848v4.128h-16.848V49h-4.8V15.4h23.712v4.176h-18.912zm33.85 3.744c3.52 0 6.208.864 8.064 2.592 1.888 1.728 2.832 4.304 2.832 7.728V49h-4.368v-3.36c-.768 1.184-1.872 2.096-3.312 2.736-1.408.608-3.088.912-5.04.912-2.848 0-5.136-.688-6.864-2.064-1.696-1.376-2.544-3.184-2.544-5.424s.816-4.032 2.448-5.376c1.632-1.376 4.224-2.064 7.776-2.064h7.296v-.912c0-1.984-.576-3.504-1.728-4.56-1.152-1.056-2.848-1.584-5.088-1.584a13.09 13.09 0 00-4.416.768c-1.44.48-2.656 1.136-3.648 1.968l-1.92-3.456c1.312-1.056 2.88-1.856 4.704-2.4 1.824-.576 3.76-.864 5.808-.864zm-1.056 22.416c1.76 0 3.28-.384 4.56-1.152 1.28-.8 2.208-1.92 2.784-3.36v-3.552h-7.104c-3.904 0-5.856 1.312-5.856 3.936 0 1.28.496 2.288 1.488 3.024.992.736 2.368 1.104 4.128 1.104zm52.783-22.416c3.2 0 5.728.928 7.584 2.784 1.888 1.856 2.832 4.608 2.832 8.256V49h-4.608V34.888c0-2.464-.576-4.32-1.728-5.568-1.12-1.248-2.736-1.872-4.848-1.872-2.336 0-4.192.736-5.568 2.208-1.376 1.44-2.064 3.52-2.064 6.24V49h-4.608V34.888c0-2.464-.576-4.32-1.728-5.568-1.12-1.248-2.736-1.872-4.848-1.872-2.336 0-4.192.736-5.568 2.208-1.376 1.44-2.064 3.52-2.064 6.24V49h-4.608V23.56h4.416v3.792c.928-1.312 2.144-2.304 3.648-2.976 1.504-.704 3.216-1.056 5.136-1.056 1.984 0 3.744.4 5.28 1.2a8.34 8.34 0 013.552 3.504c.96-1.472 2.288-2.624 3.984-3.456 1.728-.832 3.664-1.248 5.808-1.248zm19.375.24h4.608V49h-4.608V23.56zm2.304-4.896c-.896 0-1.648-.288-2.256-.864-.576-.576-.864-1.28-.864-2.112 0-.832.288-1.536.864-2.112.608-.608 1.36-.912 2.256-.912.896 0 1.632.288 2.208.864.608.544.912 1.232.912 2.064 0 .864-.304 1.6-.912 2.208-.576.576-1.312.864-2.208.864zm11.583-5.28h4.608V49h-4.608V13.384zm36.398 10.176l-12.336 27.984c-1.088 2.592-2.368 4.416-3.84 5.472-1.44 1.056-3.184 1.584-5.232 1.584-1.248 0-2.464-.208-3.648-.624-1.152-.384-2.112-.96-2.88-1.728l1.968-3.456c1.312 1.248 2.832 1.872 4.56 1.872 1.12 0 2.048-.304 2.784-.912.768-.576 1.456-1.584 2.064-3.024l.816-1.776-11.232-25.392h4.8l8.88 20.352 8.784-20.352h4.512zm25.495-3.984h-11.52V15.4h27.792v4.176h-11.52V49h-4.752V19.576zm25.114 8.256c.8-1.472 1.984-2.592 3.552-3.36 1.568-.768 3.472-1.152 5.712-1.152v4.464a8.996 8.996 0 00-1.056-.048c-2.496 0-4.464.752-5.904 2.256-1.408 1.472-2.112 3.584-2.112 6.336V49h-4.608V23.56h4.416v4.272zm38.181 8.592c0 .352-.032.816-.096 1.392h-20.64c.288 2.24 1.264 4.048 2.928 5.424 1.696 1.344 3.792 2.016 6.288 2.016 3.04 0 5.488-1.024 7.344-3.072l2.544 2.976c-1.152 1.344-2.592 2.368-4.32 3.072-1.696.704-3.6 1.056-5.712 1.056-2.688 0-5.072-.544-7.152-1.632-2.08-1.12-3.696-2.672-4.848-4.656-1.12-1.984-1.68-4.224-1.68-6.72 0-2.464.544-4.688 1.632-6.672 1.12-1.984 2.64-3.52 4.56-4.608 1.952-1.12 4.144-1.68 6.576-1.68 2.432 0 4.592.56 6.48 1.68 1.92 1.088 3.408 2.624 4.464 4.608 1.088 1.984 1.632 4.256 1.632 6.816zm-12.576-9.216c-2.208 0-4.064.672-5.568 2.016-1.472 1.344-2.336 3.104-2.592 5.28h16.32c-.256-2.144-1.136-3.888-2.64-5.232-1.472-1.376-3.312-2.064-5.52-2.064zm42.447 9.216c0 .352-.032.816-.096 1.392h-20.64c.288 2.24 1.264 4.048 2.928 5.424 1.696 1.344 3.792 2.016 6.288 2.016 3.04 0 5.488-1.024 7.344-3.072l2.544 2.976c-1.152 1.344-2.592 2.368-4.32 3.072-1.696.704-3.6 1.056-5.712 1.056-2.688 0-5.072-.544-7.152-1.632-2.08-1.12-3.696-2.672-4.848-4.656-1.12-1.984-1.68-4.224-1.68-6.72 0-2.464.544-4.688 1.632-6.672 1.12-1.984 2.64-3.52 4.56-4.608 1.952-1.12 4.144-1.68 6.576-1.68 2.432 0 4.592.56 6.48 1.68 1.92 1.088 3.408 2.624 4.464 4.608 1.088 1.984 1.632 4.256 1.632 6.816zm-12.576-9.216c-2.208 0-4.064.672-5.568 2.016-1.472 1.344-2.336 3.104-2.592 5.28h16.32c-.256-2.144-1.136-3.888-2.64-5.232-1.472-1.376-3.312-2.064-5.52-2.064zM180.73 77.8h7.67c1.924 0 3.631.381 5.122 1.144 1.491.763 2.643 1.837 3.458 3.224.832 1.37 1.248 2.947 1.248 4.732 0 1.785-.416 3.371-1.248 4.758-.815 1.37-1.967 2.435-3.458 3.198-1.491.763-3.198 1.144-5.122 1.144h-7.67V77.8zm7.514 15.938c1.473 0 2.765-.286 3.874-.858 1.127-.572 1.993-1.37 2.6-2.392.607-1.04.91-2.236.91-3.588 0-1.352-.303-2.54-.91-3.562-.607-1.04-1.473-1.846-2.6-2.418-1.109-.572-2.401-.858-3.874-.858h-4.914v13.676h4.914zm13.862-11.518h2.496V96h-2.496V82.22zm1.248-2.652c-.485 0-.892-.156-1.222-.468a1.556 1.556 0 01-.468-1.144c0-.45.156-.832.468-1.144.33-.33.737-.494 1.222-.494.486 0 .884.156 1.196.468.33.295.494.667.494 1.118 0 .468-.164.867-.494 1.196-.312.312-.71.468-1.196.468zm10.226 16.588c-1.126 0-2.21-.147-3.25-.442-1.04-.312-1.854-.702-2.444-1.17l1.04-1.976c.607.433 1.344.78 2.21 1.04.867.26 1.742.39 2.626.39 2.184 0 3.276-.624 3.276-1.872 0-.416-.147-.745-.442-.988-.294-.243-.667-.416-1.118-.52-.433-.121-1.057-.251-1.872-.39-1.109-.173-2.019-.373-2.73-.598a4.2 4.2 0 01-1.794-1.144c-.502-.537-.754-1.291-.754-2.262 0-1.248.52-2.245 1.56-2.99 1.04-.763 2.436-1.144 4.186-1.144.919 0 1.838.113 2.756.338.919.225 1.673.529 2.262.91l-1.066 1.976c-1.126-.728-2.452-1.092-3.978-1.092-1.057 0-1.863.173-2.418.52-.554.347-.832.806-.832 1.378 0 .45.156.806.468 1.066.312.26.694.45 1.144.572.468.121 1.118.26 1.95.416 1.11.19 2.002.399 2.678.624a3.906 3.906 0 011.768 1.092c.486.52.728 1.248.728 2.184 0 1.248-.537 2.245-1.612 2.99-1.057.728-2.504 1.092-4.342 1.092zm15.34 0c-1.404 0-2.661-.303-3.77-.91a6.721 6.721 0 01-2.574-2.496c-.624-1.075-.936-2.288-.936-3.64 0-1.352.312-2.557.936-3.614A6.482 6.482 0 01225.15 83c1.109-.607 2.366-.91 3.77-.91 1.248 0 2.357.251 3.328.754a5.358 5.358 0 012.288 2.184l-1.898 1.222c-.434-.659-.971-1.153-1.612-1.482a4.6 4.6 0 00-2.132-.494c-.902 0-1.716.2-2.444.598a4.35 4.35 0 00-1.69 1.716c-.399.728-.598 1.569-.598 2.522 0 .97.199 1.829.598 2.574a4.396 4.396 0 001.69 1.69c.728.399 1.542.598 2.444.598a4.6 4.6 0 002.132-.494c.641-.33 1.178-.823 1.612-1.482l1.898 1.196a5.52 5.52 0 01-2.288 2.21c-.971.503-2.08.754-3.328.754zm14.806 0c-1.369 0-2.6-.303-3.692-.91a6.721 6.721 0 01-2.574-2.496c-.607-1.075-.91-2.288-.91-3.64 0-1.352.303-2.557.91-3.614A6.482 6.482 0 01240.034 83c1.092-.607 2.323-.91 3.692-.91 1.369 0 2.591.303 3.666.91a6.31 6.31 0 012.548 2.496c.624 1.057.936 2.262.936 3.614 0 1.352-.312 2.565-.936 3.64a6.537 6.537 0 01-2.548 2.496c-1.075.607-2.297.91-3.666.91zm0-2.184c.884 0 1.673-.2 2.366-.598a4.4 4.4 0 001.664-1.716c.399-.745.598-1.595.598-2.548 0-.953-.199-1.794-.598-2.522a4.18 4.18 0 00-1.664-1.716c-.693-.399-1.482-.598-2.366-.598-.884 0-1.681.2-2.392.598-.693.399-1.248.97-1.664 1.716-.399.728-.598 1.569-.598 2.522 0 .953.199 1.803.598 2.548.416.728.971 1.3 1.664 1.716.711.399 1.508.598 2.392.598zm22.675-11.752L260.369 96h-2.548l-6.032-13.78h2.6l4.732 11.05 4.836-11.05h2.444zm14.663 6.968c0 .19-.018.442-.052.754h-11.18c.156 1.213.684 2.193 1.586 2.938.918.728 2.054 1.092 3.406 1.092 1.646 0 2.972-.555 3.978-1.664l1.378 1.612a6.017 6.017 0 01-2.34 1.664c-.919.381-1.95.572-3.094.572-1.456 0-2.748-.295-3.874-.884a6.57 6.57 0 01-2.626-2.522c-.607-1.075-.91-2.288-.91-3.64 0-1.335.294-2.54.884-3.614A6.446 6.446 0 01270.69 83c1.057-.607 2.244-.91 3.562-.91 1.317 0 2.487.303 3.51.91a6.1 6.1 0 012.418 2.496c.589 1.075.884 2.305.884 3.692zm-6.812-4.992c-1.196 0-2.202.364-3.016 1.092-.798.728-1.266 1.681-1.404 2.86h8.84c-.139-1.161-.616-2.106-1.43-2.834-.798-.745-1.794-1.118-2.99-1.118zm12.93.338c.433-.797 1.074-1.404 1.924-1.82.849-.416 1.88-.624 3.094-.624v2.418a4.892 4.892 0 00-.572-.026c-1.352 0-2.418.407-3.198 1.222-.763.797-1.144 1.941-1.144 3.432V96h-2.496V82.22h2.392v2.314zm27.968-2.314l-6.682 15.158c-.589 1.404-1.283 2.392-2.08 2.964-.78.572-1.725.858-2.834.858a5.926 5.926 0 01-1.976-.338c-.624-.208-1.144-.52-1.56-.936l1.066-1.872c.711.676 1.534 1.014 2.47 1.014.607 0 1.109-.165 1.508-.494.416-.312.789-.858 1.118-1.638l.442-.962-6.084-13.754h2.6l4.81 11.024 4.758-11.024h2.444zm8.111 13.936c-1.37 0-2.6-.303-3.692-.91a6.721 6.721 0 01-2.574-2.496c-.607-1.075-.91-2.288-.91-3.64 0-1.352.303-2.557.91-3.614A6.482 6.482 0 01319.569 83c1.092-.607 2.322-.91 3.692-.91 1.369 0 2.591.303 3.666.91a6.31 6.31 0 012.548 2.496c.624 1.057.936 2.262.936 3.614 0 1.352-.312 2.565-.936 3.64a6.537 6.537 0 01-2.548 2.496c-1.075.607-2.297.91-3.666.91zm0-2.184c.884 0 1.672-.2 2.366-.598a4.406 4.406 0 001.664-1.716c.398-.745.598-1.595.598-2.548 0-.953-.2-1.794-.598-2.522a4.186 4.186 0 00-1.664-1.716c-.694-.399-1.482-.598-2.366-.598-.884 0-1.682.2-2.392.598-.694.399-1.248.97-1.664 1.716-.399.728-.598 1.569-.598 2.522 0 .953.199 1.803.598 2.548.416.728.97 1.3 1.664 1.716.71.399 1.508.598 2.392.598zm23.705-11.752V96H344.6v-2.08c-.502.71-1.17 1.265-2.002 1.664-.814.381-1.707.572-2.678.572-1.837 0-3.284-.503-4.342-1.508-1.057-1.023-1.586-2.522-1.586-4.498v-7.93h2.496v7.644c0 1.335.321 2.349.962 3.042.642.676 1.56 1.014 2.756 1.014 1.318 0 2.358-.399 3.12-1.196.763-.797 1.144-1.924 1.144-3.38V82.22h2.496zm7.404 2.314c.434-.797 1.075-1.404 1.924-1.82.85-.416 1.881-.624 3.094-.624v2.418a4.868 4.868 0 00-.572-.026c-1.352 0-2.418.407-3.198 1.222-.762.797-1.144 1.941-1.144 3.432V96h-2.496V82.22h2.392v2.314zm20.819-5.928c-1.491 0-2.236.806-2.236 2.418v1.196h4.004v2.054h-3.952V96h-2.496V84.274h-2.34V82.22h2.34v-1.222c0-1.37.398-2.453 1.196-3.25.797-.797 1.915-1.196 3.354-1.196.554 0 1.074.07 1.56.208.485.139.901.338 1.248.598l-.754 1.898a3.109 3.109 0 00-1.924-.65zm9.146 3.484c1.906 0 3.362.468 4.368 1.404 1.022.936 1.534 2.331 1.534 4.186V96h-2.366v-1.82c-.416.641-1.014 1.135-1.794 1.482-.763.33-1.673.494-2.73.494-1.543 0-2.782-.373-3.718-1.118-.919-.745-1.378-1.725-1.378-2.938s.442-2.184 1.326-2.912c.884-.745 2.288-1.118 4.212-1.118h3.952v-.494c0-1.075-.312-1.898-.936-2.47-.624-.572-1.543-.858-2.756-.858a7.09 7.09 0 00-2.392.416c-.78.26-1.439.615-1.976 1.066l-1.04-1.872c.71-.572 1.56-1.005 2.548-1.3a10.384 10.384 0 013.146-.468zm-.572 12.142c.953 0 1.776-.208 2.47-.624a3.715 3.715 0 001.508-1.82v-1.924h-3.848c-2.115 0-3.172.71-3.172 2.132 0 .693.268 1.24.806 1.638.537.399 1.282.598 2.236.598zm28.591-12.142c1.733 0 3.103.503 4.108 1.508 1.023 1.005 1.534 2.496 1.534 4.472V96H415.5v-7.644c0-1.335-.312-2.34-.936-3.016-.607-.676-1.482-1.014-2.626-1.014-1.265 0-2.271.399-3.016 1.196-.745.78-1.118 1.907-1.118 3.38V96h-2.496v-7.644c0-1.335-.312-2.34-.936-3.016-.607-.676-1.482-1.014-2.626-1.014-1.265 0-2.271.399-3.016 1.196-.745.78-1.118 1.907-1.118 3.38V96h-2.496V82.22h2.392v2.054a4.74 4.74 0 011.976-1.612c.815-.381 1.742-.572 2.782-.572 1.075 0 2.028.217 2.86.65a4.519 4.519 0 011.924 1.898c.52-.797 1.239-1.421 2.158-1.872.936-.45 1.985-.676 3.146-.676zm10.494.13h2.496V96h-2.496V82.22zm1.248-2.652c-.485 0-.892-.156-1.222-.468a1.556 1.556 0 01-.468-1.144c0-.45.156-.832.468-1.144.33-.33.737-.494 1.222-.494.486 0 .884.156 1.196.468.33.295.494.667.494 1.118 0 .468-.164.867-.494 1.196-.312.312-.71.468-1.196.468zm6.274-2.86h2.496V96h-2.496V76.708zm19.716 5.512l-6.682 15.158c-.589 1.404-1.283 2.392-2.08 2.964-.78.572-1.725.858-2.834.858a5.926 5.926 0 01-1.976-.338c-.624-.208-1.144-.52-1.56-.936l1.066-1.872c.711.676 1.534 1.014 2.47 1.014.607 0 1.109-.165 1.508-.494.416-.312.789-.858 1.118-1.638l.442-.962-6.084-13.754h2.6l4.81 11.024 4.758-11.024h2.444zm13.784 13.936a11.85 11.85 0 01-3.25-.442c-1.04-.312-1.855-.702-2.444-1.17l1.04-1.976c.606.433 1.343.78 2.21 1.04a9.09 9.09 0 002.626.39c2.184 0 3.276-.624 3.276-1.872 0-.416-.148-.745-.442-.988-.295-.243-.668-.416-1.118-.52-.434-.121-1.058-.251-1.872-.39-1.11-.173-2.02-.373-2.73-.598a4.188 4.188 0 01-1.794-1.144c-.503-.537-.754-1.291-.754-2.262 0-1.248.52-2.245 1.56-2.99 1.04-.763 2.435-1.144 4.186-1.144.918 0 1.837.113 2.756.338.918.225 1.672.529 2.262.91l-1.066 1.976c-1.127-.728-2.453-1.092-3.978-1.092-1.058 0-1.864.173-2.418.52-.555.347-.832.806-.832 1.378 0 .45.156.806.468 1.066.312.26.693.45 1.144.572.468.121 1.118.26 1.95.416 1.109.19 2.002.399 2.678.624a3.917 3.917 0 011.768 1.092c.485.52.728 1.248.728 2.184 0 1.248-.538 2.245-1.612 2.99-1.058.728-2.505 1.092-4.342 1.092zm17.081-.962c-.364.312-.814.555-1.352.728a5.936 5.936 0 01-1.664.234c-1.386 0-2.461-.373-3.224-1.118-.762-.745-1.144-1.811-1.144-3.198v-7.566h-2.34V82.22h2.34v-3.016h2.496v3.016h3.952v2.054h-3.952v7.462c0 .745.182 1.317.546 1.716.382.399.919.598 1.612.598.763 0 1.413-.217 1.95-.65l.78 1.794zm8.723.962c-1.37 0-2.6-.303-3.692-.91a6.721 6.721 0 01-2.574-2.496c-.607-1.075-.91-2.288-.91-3.64 0-1.352.303-2.557.91-3.614A6.482 6.482 0 01485.982 83c1.092-.607 2.322-.91 3.692-.91 1.369 0 2.591.303 3.666.91a6.31 6.31 0 012.548 2.496c.624 1.057.936 2.262.936 3.614 0 1.352-.312 2.565-.936 3.64a6.537 6.537 0 01-2.548 2.496c-1.075.607-2.297.91-3.666.91zm0-2.184c.884 0 1.672-.2 2.366-.598a4.406 4.406 0 001.664-1.716c.398-.745.598-1.595.598-2.548 0-.953-.2-1.794-.598-2.522a4.186 4.186 0 00-1.664-1.716c-.694-.399-1.482-.598-2.366-.598-.884 0-1.682.2-2.392.598-.694.399-1.248.97-1.664 1.716-.399.728-.598 1.569-.598 2.522 0 .953.199 1.803.598 2.548.416.728.97 1.3 1.664 1.716.71.399 1.508.598 2.392.598zm13.254-9.438c.433-.797 1.074-1.404 1.924-1.82.849-.416 1.88-.624 3.094-.624v2.418a4.892 4.892 0 00-.572-.026c-1.352 0-2.418.407-3.198 1.222-.763.797-1.144 1.941-1.144 3.432V96h-2.496V82.22h2.392v2.314zm21.107-2.314l-6.682 15.158c-.59 1.404-1.283 2.392-2.08 2.964-.78.572-1.725.858-2.834.858a5.926 5.926 0 01-1.976-.338c-.624-.208-1.144-.52-1.56-.936l1.066-1.872c.71.676 1.534 1.014 2.47 1.014.606 0 1.109-.165 1.508-.494.416-.312.788-.858 1.118-1.638l.442-.962-6.084-13.754h2.6l4.81 11.024 4.758-11.024h2.444z" fill="#69A042"/><path fill-rule="evenodd" clip-rule="evenodd" d="M69.443 81.048c-.27-16.18 7.975-32.017 22.913-40.682 14.619-8.48 31.957-7.946 45.637-.115.27 16.18-7.974 32.017-22.912 40.682-14.62 8.48-31.958 7.946-45.638.115z" fill="#6EC66C" fill-opacity=".5"/><path fill-rule="evenodd" clip-rule="evenodd" d="M108.515 11.289c8.286 13.876 9.028 31.734.404 46.741-8.441 14.688-23.721 22.935-39.466 23.025-8.286-13.876-9.028-31.734-.404-46.741 8.44-14.688 23.721-22.935 39.466-23.025z" fill="#6EC66C" fill-opacity=".5"/><path fill-rule="evenodd" clip-rule="evenodd" d="M69.442 81.06c-13.811 8.324-31.586 9.07-46.524.405C8.298 72.985.09 57.633 0 41.815c13.812-8.325 31.587-9.07 46.524-.406 14.62 8.48 22.829 23.833 22.918 39.65z" fill="#6EC66C" fill-opacity=".5"/><path fill-rule="evenodd" clip-rule="evenodd" d="M28.844 12.189c16.105-.271 31.87 8.012 40.494 23.02 8.441 14.688 7.91 32.106.115 45.85-16.105.271-31.87-8.012-40.494-23.02-8.44-14.688-7.91-32.106-.115-45.85z" fill="#6EC66C" fill-opacity=".5"/><path fill-rule="evenodd" clip-rule="evenodd" d="M68.577 1c14.082 7.855 23.611 22.948 23.611 40.276 0 16.96-9.128 31.779-22.719 39.766-14.082-7.855-23.612-22.948-23.612-40.276 0-16.96 9.13-31.779 22.72-39.766z" fill="#6EC66C" fill-opacity=".5"/><path fill-rule="evenodd" clip-rule="evenodd" d="M69.492 81.055c7.793-13.743 8.323-31.16-.117-45.847a47.01 47.01 0 00-.405-.69c-8.501 14.964-7.729 32.724.52 46.537h.002z" fill="#fff"/><path fill-rule="evenodd" clip-rule="evenodd" d="M79.38 100.946c-2.842-7.817-4.697-13.956-5.926-20.086 14.306-1.33 27.772-9.379 35.502-22.83a45.992 45.992 0 006.139-23.839c-7.72.028-15.538 2.02-22.703 6.175a45.72 45.72 0 00-16.877 17.02 45.992 45.992 0 00-6.545-22.869 45.983 45.983 0 00-6.03 23.056A45.717 45.717 0 0046.56 41.41c-7.476-4.337-15.664-6.316-23.71-6.167a45.99 45.99 0 006.146 22.798c7.905 13.756 21.811 21.863 36.478 22.91-1.24 6.853-3.035 12.798-5.851 19.996 5.923 2.747 13.94 2.73 19.756 0z" fill="#6EC66C" fill-opacity=".5"/><path fill-rule="evenodd" clip-rule="evenodd" d="M92.187 41.276c0-.27-.002-.54-.007-.808-10.248 6.003-17.32 15.394-20.622 25.943-.13-1.85-.236-3.788-.324-5.84a4.333 4.333 0 002.513-3.938c0-2.392-1.93-4.33-4.311-4.33-2.381 0-4.311 1.938-4.311 4.33a4.333 4.333 0 002.537 3.949 327.401 327.401 0 01-.477 6.445c-3.378-10.434-10.458-19.7-20.661-25.617a46.594 46.594 0 00-.667-.38c.088 15.672 7.971 29.49 19.951 37.738-1.248 7.806-3.112 14.227-6.223 22.178 5.924 2.747 13.94 2.73 19.757 0-3.17-8.722-5.112-15.353-6.327-22.216 11.608-8.352 19.172-22.015 19.172-37.454z" fill="#6EC66C"/></svg>