<svg width="219" height="48" fill="none" xmlns="http://www.w3.org/2000/svg"><path d="M92.572 21l-.018-9.18L88 19.47h-.828l-4.554-7.596V21H80.89V8.4h1.476l5.256 8.856L92.806 8.4h1.476L94.3 21h-1.728zm13.879-9.54l-4.626 10.494c-.408.972-.888 1.656-1.44 2.052-.54.396-1.194.594-1.962.594-.468 0-.924-.078-1.368-.234a2.711 2.711 0 01-1.08-.648l.738-1.296c.492.468 1.062.702 1.71.702.42 0 .768-.114 1.044-.342.288-.216.546-.594.774-1.134l.306-.666-4.212-9.522h1.8l3.33 7.632 3.294-7.632h1.692zm8.859-1.494v4.392h6.318v1.548h-6.318V21h-1.8V8.4h8.892v1.566h-7.092zm12.694 1.404c1.32 0 2.328.324 3.024.972.708.648 1.062 1.614 1.062 2.898V21h-1.638v-1.26c-.288.444-.702.786-1.242 1.026-.528.228-1.158.342-1.89.342-1.068 0-1.926-.258-2.574-.774-.636-.516-.954-1.194-.954-2.034 0-.84.306-1.512.918-2.016.612-.516 1.584-.774 2.916-.774h2.736v-.342c0-.744-.216-1.314-.648-1.71-.432-.396-1.068-.594-1.908-.594-.564 0-1.116.096-1.656.288a4.14 4.14 0 00-1.368.738l-.72-1.296a5.105 5.105 0 011.764-.9 7.191 7.191 0 012.178-.324zm-.396 8.406c.66 0 1.23-.144 1.71-.432.48-.3.828-.72 1.044-1.26v-1.332h-2.664c-1.464 0-2.196.492-2.196 1.476 0 .48.186.858.558 1.134.372.276.888.414 1.548.414zm19.794-8.406c1.2 0 2.148.348 2.844 1.044.708.696 1.062 1.728 1.062 3.096V21h-1.728v-5.292c0-.924-.216-1.62-.648-2.088-.42-.468-1.026-.702-1.818-.702-.876 0-1.572.276-2.088.828-.516.54-.774 1.32-.774 2.34V21h-1.728v-5.292c0-.924-.216-1.62-.648-2.088-.42-.468-1.026-.702-1.818-.702-.876 0-1.572.276-2.088.828-.516.54-.774 1.32-.774 2.34V21h-1.728v-9.54h1.656v1.422a3.282 3.282 0 011.368-1.116c.564-.264 1.206-.396 1.926-.396.744 0 1.404.15 1.98.45.576.3 1.02.738 1.332 1.314.36-.552.858-.984 1.494-1.296.648-.312 1.374-.468 2.178-.468zm7.265.09h1.728V21h-1.728v-9.54zm.864-1.836c-.336 0-.618-.108-.846-.324a1.077 1.077 0 01-.324-.792c0-.312.108-.576.324-.792a1.15 1.15 0 01.846-.342c.336 0 .612.108.828.324a.994.994 0 01.342.774c0 .324-.114.6-.342.828-.216.216-.492.324-.828.324zm4.344-1.98h1.728V21h-1.728V7.644zm13.649 3.816l-4.626 10.494c-.408.972-.888 1.656-1.44 2.052-.54.396-1.194.594-1.962.594-.468 0-.924-.078-1.368-.234a2.711 2.711 0 01-1.08-.648l.738-1.296c.492.468 1.062.702 1.71.702.42 0 .768-.114 1.044-.342.288-.216.546-.594.774-1.134l.306-.666-4.212-9.522h1.8l3.33 7.632 3.294-7.632h1.692zm9.561-1.494h-4.32V8.4h10.422v1.566h-4.32V21h-1.782V9.966zm9.418 3.096c.3-.552.744-.972 1.332-1.26.588-.288 1.302-.432 2.142-.432v1.674a3.374 3.374 0 00-.396-.018c-.936 0-1.674.282-2.214.846-.528.552-.792 1.344-.792 2.376V21h-1.728v-9.54h1.656v1.602zm14.317 3.222c0 .132-.012.306-.036.522h-7.74c.108.84.474 1.518 1.098 2.034.636.504 1.422.756 2.358.756 1.14 0 2.058-.384 2.754-1.152l.954 1.116a4.166 4.166 0 01-1.62 1.152c-.636.264-1.35.396-2.142.396-1.008 0-1.902-.204-2.682-.612a4.55 4.55 0 01-1.818-1.746c-.42-.744-.63-1.584-.63-2.52 0-.924.204-1.758.612-2.502.42-.744.99-1.32 1.71-1.728.732-.42 1.554-.63 2.466-.63.912 0 1.722.21 2.43.63.72.408 1.278.984 1.674 1.728.408.744.612 1.596.612 2.556zm-4.716-3.456c-.828 0-1.524.252-2.088.756-.552.504-.876 1.164-.972 1.98h6.12c-.096-.804-.426-1.458-.99-1.962-.552-.516-1.242-.774-2.07-.774zm15.918 3.456c0 .132-.012.306-.036.522h-7.74c.108.84.474 1.518 1.098 2.034.636.504 1.422.756 2.358.756 1.14 0 2.058-.384 2.754-1.152l.954 1.116a4.166 4.166 0 01-1.62 1.152c-.636.264-1.35.396-2.142.396-1.008 0-1.902-.204-2.682-.612a4.55 4.55 0 01-1.818-1.746c-.42-.744-.63-1.584-.63-2.52 0-.924.204-1.758.612-2.502.42-.744.99-1.32 1.71-1.728.732-.42 1.554-.63 2.466-.63.912 0 1.722.21 2.43.63.72.408 1.278.984 1.674 1.728.408.744.612 1.596.612 2.556zm-4.716-3.456c-.828 0-1.524.252-2.088.756-.552.504-.876 1.164-.972 1.98h6.12c-.096-.804-.426-1.458-.99-1.962-.552-.516-1.242-.774-2.07-.774zM80.05 34H83c.74 0 1.397.147 1.97.44a3.19 3.19 0 011.33 1.24c.32.527.48 1.133.48 1.82s-.16 1.297-.48 1.83a3.21 3.21 0 01-1.33 1.23c-.573.293-1.23.44-1.97.44h-2.95v-7zm2.89 6.13c.567 0 1.063-.11 1.49-.33a2.39 2.39 0 001-.92c.233-.4.35-.86.35-1.38 0-.52-.117-.977-.35-1.37a2.37 2.37 0 00-1-.93c-.427-.22-.923-.33-1.49-.33h-1.89v5.26h1.89zm5.432-4.43h.96V41h-.96v-5.3zm.48-1.02a.657.657 0 01-.47-.18.599.599 0 01-.18-.44c0-.173.06-.32.18-.44a.638.638 0 01.47-.19c.186 0 .34.06.46.18.126.113.19.257.19.43a.63.63 0 01-.19.46.623.623 0 01-.46.18zm4.033 6.38c-.434 0-.85-.057-1.25-.17-.4-.12-.714-.27-.94-.45l.4-.76c.233.167.516.3.85.4.333.1.67.15 1.01.15.84 0 1.26-.24 1.26-.72a.466.466 0 00-.17-.38 1.03 1.03 0 00-.43-.2 7.53 7.53 0 00-.72-.15 7.29 7.29 0 01-1.05-.23 1.614 1.614 0 01-.69-.44c-.194-.207-.29-.497-.29-.87 0-.48.2-.863.6-1.15.4-.293.936-.44 1.61-.44.353 0 .706.043 1.06.13.353.087.643.203.87.35l-.41.76c-.434-.28-.944-.42-1.53-.42-.407 0-.717.067-.93.2-.214.133-.32.31-.32.53 0 .173.06.31.18.41.12.1.266.173.44.22.18.047.43.1.75.16.426.073.77.153 1.03.24.266.08.493.22.68.42.186.2.28.48.28.84 0 .48-.207.863-.62 1.15-.407.28-.964.42-1.67.42zm6 0c-.54 0-1.024-.117-1.45-.35a2.585 2.585 0 01-.99-.96c-.24-.413-.36-.88-.36-1.4 0-.52.12-.983.36-1.39.24-.413.57-.733.99-.96.426-.233.91-.35 1.45-.35.48 0 .906.097 1.279.29.38.193.674.473.88.84l-.73.47a1.626 1.626 0 00-.62-.57 1.768 1.768 0 00-.82-.19c-.346 0-.66.077-.94.23-.273.153-.49.373-.65.66a1.99 1.99 0 00-.23.97c0 .373.077.703.23.99.16.28.377.497.65.65.28.153.594.23.94.23.3 0 .574-.063.82-.19.247-.127.454-.317.62-.57l.73.46c-.206.367-.5.65-.88.85-.373.193-.8.29-1.28.29zm5.794 0c-.526 0-1-.117-1.42-.35a2.585 2.585 0 01-.99-.96 2.801 2.801 0 01-.35-1.4c0-.52.117-.983.35-1.39.24-.413.57-.733.99-.96a2.88 2.88 0 011.42-.35c.527 0 .997.117 1.41.35.42.227.747.547.98.96.24.407.36.87.36 1.39 0 .52-.12.987-.36 1.4a2.51 2.51 0 01-.98.96 2.82 2.82 0 01-1.41.35zm0-.84c.34 0 .644-.077.91-.23.274-.16.487-.38.64-.66.154-.287.23-.613.23-.98s-.076-.69-.23-.97a1.601 1.601 0 00-.64-.66 1.791 1.791 0 00-.91-.23c-.34 0-.646.077-.92.23-.266.153-.48.373-.64.66a1.99 1.99 0 00-.23.97c0 .367.077.693.23.98.16.28.374.5.64.66.274.153.58.23.92.23zm8.821-4.52l-2.32 5.3h-.98l-2.32-5.3h1l1.82 4.25 1.86-4.25h.94zm5.74 2.68c0 .073-.007.17-.02.29h-4.3c.06.467.263.843.61 1.13.353.28.79.42 1.31.42.633 0 1.143-.213 1.53-.64l.53.62c-.24.28-.54.493-.9.64a3.07 3.07 0 01-1.19.22c-.56 0-1.057-.113-1.49-.34a2.53 2.53 0 01-1.01-.97 2.801 2.801 0 01-.35-1.4c0-.513.113-.977.34-1.39a2.48 2.48 0 01.95-.96c.407-.233.863-.35 1.37-.35.507 0 .957.117 1.35.35.4.227.71.547.93.96.227.413.34.887.34 1.42zm-2.62-1.92c-.46 0-.847.14-1.16.42-.307.28-.487.647-.54 1.1h3.4a1.674 1.674 0 00-.55-1.09c-.307-.287-.69-.43-1.15-.43zm5.073.13c.167-.307.413-.54.74-.7.327-.16.723-.24 1.19-.24v.93a1.867 1.867 0 00-.22-.01c-.52 0-.93.157-1.23.47-.293.307-.44.747-.44 1.32V41h-.96v-5.3h.92v.89zm10.957-.89l-2.57 5.83c-.227.54-.493.92-.8 1.14-.3.22-.663.33-1.09.33a2.27 2.27 0 01-.76-.13c-.24-.08-.44-.2-.6-.36l.41-.72c.273.26.59.39.95.39a.88.88 0 00.58-.19c.16-.12.303-.33.43-.63l.17-.37-2.34-5.29h1l1.85 4.24 1.83-4.24h.94zm3.219 5.36c-.526 0-1-.117-1.42-.35a2.585 2.585 0 01-.99-.96 2.801 2.801 0 01-.35-1.4c0-.52.117-.983.35-1.39.24-.413.57-.733.99-.96a2.88 2.88 0 011.42-.35c.527 0 .997.117 1.41.35.42.227.747.547.98.96.24.407.36.87.36 1.39 0 .52-.12.987-.36 1.4a2.51 2.51 0 01-.98.96 2.82 2.82 0 01-1.41.35zm0-.84c.34 0 .644-.077.91-.23.274-.16.487-.38.64-.66.154-.287.23-.613.23-.98s-.076-.69-.23-.97a1.601 1.601 0 00-.64-.66 1.791 1.791 0 00-.91-.23c-.34 0-.646.077-.92.23-.266.153-.48.373-.64.66a1.99 1.99 0 00-.23.97c0 .367.077.693.23.98.16.28.374.5.64.66.274.153.58.23.92.23zm9.218-4.52V41h-.91v-.8c-.193.273-.45.487-.77.64-.313.147-.657.22-1.03.22-.707 0-1.263-.193-1.67-.58-.407-.393-.61-.97-.61-1.73V35.7h.96v2.94c0 .513.123.903.37 1.17.247.26.6.39 1.06.39.507 0 .907-.153 1.2-.46.293-.307.44-.74.44-1.3V35.7h.96zm2.948.89c.166-.307.413-.54.74-.7.326-.16.723-.24 1.19-.24v.93a1.879 1.879 0 00-.22-.01c-.52 0-.93.157-1.23.47-.294.307-.44.747-.44 1.32V41h-.96v-5.3h.92v.89zm8.207-2.28c-.574 0-.86.31-.86.93v.46h1.54v.79h-1.52V41h-.96v-4.51h-.9v-.79h.9v-.47c0-.527.153-.943.46-1.25.306-.307.736-.46 1.29-.46.213 0 .413.027.6.08.186.053.346.13.48.23l-.29.73a1.196 1.196 0 00-.74-.25zm3.618 1.34c.733 0 1.293.18 1.68.54.393.36.59.897.59 1.61V41h-.91v-.7a1.54 1.54 0 01-.69.57c-.294.127-.644.19-1.05.19-.594 0-1.07-.143-1.43-.43a1.383 1.383 0 01-.53-1.13c0-.467.17-.84.51-1.12.34-.287.88-.43 1.62-.43h1.52v-.19c0-.413-.12-.73-.36-.95-.24-.22-.594-.33-1.06-.33-.314 0-.62.053-.92.16a2.3 2.3 0 00-.76.41l-.4-.72c.273-.22.6-.387.98-.5.38-.12.783-.18 1.21-.18zm-.22 4.67c.366 0 .683-.08.95-.24.266-.167.46-.4.58-.7v-.74h-1.48c-.814 0-1.22.273-1.22.82a.74.74 0 00.31.63c.206.153.493.23.86.23zm11.096-4.67c.667 0 1.193.193 1.58.58.393.387.59.96.59 1.72V41h-.96v-2.94c0-.513-.12-.9-.36-1.16-.233-.26-.57-.39-1.01-.39-.487 0-.873.153-1.16.46-.287.3-.43.733-.43 1.3V41h-.96v-2.94c0-.513-.12-.9-.36-1.16-.233-.26-.57-.39-1.01-.39-.487 0-.873.153-1.16.46-.287.3-.43.733-.43 1.3V41h-.96v-5.3h.92v.79c.193-.273.447-.48.76-.62a2.49 2.49 0 011.07-.22c.413 0 .78.083 1.1.25.32.167.567.41.74.73.2-.307.477-.547.83-.72.36-.173.763-.26 1.21-.26zm4.137.05h.96V41h-.96v-5.3zm.48-1.02a.656.656 0 01-.47-.18.599.599 0 01-.18-.44c0-.173.06-.32.18-.44a.637.637 0 01.47-.19c.186 0 .34.06.46.18.126.113.19.257.19.43a.63.63 0 01-.65.64zm2.512-1.1h.96V41h-.96v-7.42zm7.683 2.12l-2.57 5.83c-.226.54-.493.92-.8 1.14-.3.22-.663.33-1.09.33a2.27 2.27 0 01-.76-.13c-.24-.08-.44-.2-.6-.36l.41-.72c.274.26.59.39.95.39a.878.878 0 00.58-.19c.16-.12.304-.33.43-.63l.17-.37-2.34-5.29h1l1.85 4.24 1.83-4.24h.94zm5.502 5.36c-.433 0-.85-.057-1.25-.17-.4-.12-.713-.27-.94-.45l.4-.76c.233.167.517.3.85.4.333.1.67.15 1.01.15.84 0 1.26-.24 1.26-.72a.467.467 0 00-.17-.38 1.03 1.03 0 00-.43-.2 7.57 7.57 0 00-.72-.15 7.271 7.271 0 01-1.05-.23 1.61 1.61 0 01-.69-.44c-.193-.207-.29-.497-.29-.87 0-.48.2-.863.6-1.15.4-.293.937-.44 1.61-.44.353 0 .707.043 1.06.13.353.087.643.203.87.35l-.41.76c-.433-.28-.943-.42-1.53-.42-.407 0-.717.067-.93.2-.213.133-.32.31-.32.53 0 .173.06.31.18.41.12.1.267.173.44.22.18.047.43.1.75.16.427.073.77.153 1.03.24.267.08.493.22.68.42.187.2.28.48.28.84 0 .48-.207.863-.62 1.15-.407.28-.963.42-1.67.42zm6.67-.37c-.14.12-.314.213-.52.28-.207.06-.42.09-.64.09-.534 0-.947-.143-1.24-.43-.294-.287-.44-.697-.44-1.23v-2.91h-.9v-.79h.9v-1.16h.96v1.16h1.52v.79h-1.52v2.87c0 .287.07.507.21.66.146.153.353.23.62.23.293 0 .543-.083.75-.25l.3.69zm3.455.37c-.527 0-1-.117-1.42-.35a2.585 2.585 0 01-.99-.96 2.79 2.79 0 01-.35-1.4c0-.52.116-.983.35-1.39.24-.413.57-.733.99-.96.42-.233.893-.35 1.42-.35.526 0 .996.117 1.41.35.42.227.746.547.98.96.24.407.36.87.36 1.39 0 .52-.12.987-.36 1.4-.234.407-.56.727-.98.96-.414.233-.884.35-1.41.35zm0-.84c.34 0 .643-.077.91-.23a1.7 1.7 0 00.64-.66 2.05 2.05 0 00.23-.98c0-.367-.077-.69-.23-.97a1.613 1.613 0 00-.64-.66 1.794 1.794 0 00-.91-.23c-.34 0-.647.077-.92.23-.267.153-.48.373-.64.66a1.98 1.98 0 00-.23.97c0 .367.076.693.23.98.16.28.373.5.64.66.273.153.58.23.92.23zm5.197-3.63c.167-.307.414-.54.74-.7.327-.16.724-.24 1.19-.24v.93a1.855 1.855 0 00-.22-.01c-.52 0-.93.157-1.23.47-.293.307-.44.747-.44 1.32V41h-.96v-5.3h.92v.89zm8.218-.89l-2.57 5.83c-.226.54-.493.92-.8 1.14-.3.22-.663.33-1.09.33a2.27 2.27 0 01-.76-.13c-.24-.08-.44-.2-.6-.36l.41-.72c.274.26.59.39.95.39a.878.878 0 00.58-.19c.16-.12.304-.33.43-.63l.17-.37-2.34-5.29h1l1.85 4.24 1.83-4.24h.94z" fill="#69A042"/><path fill-rule="evenodd" clip-rule="evenodd" d="M32.205 36.885c-.125-7.455 3.699-14.753 10.626-18.746 6.78-3.907 14.821-3.661 21.166-.053.125 7.456-3.699 14.753-10.627 18.746-6.78 3.907-14.82 3.661-21.165.053z" fill="#6EC66C" fill-opacity=".5"/><path fill-rule="evenodd" clip-rule="evenodd" d="M50.326 4.741c3.843 6.394 4.187 14.622.187 21.538-3.915 6.768-11.001 10.568-18.303 10.61-3.843-6.395-4.187-14.623-.187-21.538 3.914-6.768 11-10.569 18.303-10.61z" fill="#6EC66C" fill-opacity=".5"/><path fill-rule="evenodd" clip-rule="evenodd" d="M32.205 36.89c-6.405 3.836-14.649 4.18-21.576.187C3.849 33.17.04 26.096 0 18.807c6.406-3.836 14.649-4.18 21.576-.187 6.78 3.907 10.588 10.982 10.63 18.27z" fill="#6EC66C" fill-opacity=".5"/><path fill-rule="evenodd" clip-rule="evenodd" d="M13.377 5.156c7.47-.125 14.78 3.692 18.78 10.607 3.915 6.768 3.668 14.794.053 21.127-7.468.125-14.78-3.692-18.78-10.607-3.914-6.768-3.667-14.794-.053-21.127z" fill="#6EC66C" fill-opacity=".5"/><path fill-rule="evenodd" clip-rule="evenodd" d="M31.803 0c6.53 3.62 10.95 10.574 10.95 18.559 0 7.815-4.233 14.643-10.536 18.323-6.53-3.62-10.95-10.574-10.95-18.559C21.267 10.508 25.5 3.68 31.803 0z" fill="#6EC66C" fill-opacity=".5"/><path fill-rule="evenodd" clip-rule="evenodd" d="M32.228 36.888c3.614-6.332 3.86-14.358-.054-21.125a21.288 21.288 0 00-.188-.319c-3.942 6.896-3.584 15.08.241 21.444h.001z" fill="#fff"/><path fill-rule="evenodd" clip-rule="evenodd" d="M36.813 46.053c-1.318-3.602-2.178-6.43-2.747-9.255 6.634-.612 12.88-4.321 16.464-10.52a21.086 21.086 0 002.847-10.984c-3.58.013-7.206.93-10.529 2.845a21.133 21.133 0 00-7.827 7.842 21.089 21.089 0 00-3.035-10.537 21.082 21.082 0 00-2.797 10.624 21.138 21.138 0 00-7.596-7.448 21.183 21.183 0 00-10.996-2.842c.014 3.572.933 7.19 2.85 10.505 3.666 6.339 10.115 10.074 16.918 10.557-.576 3.158-1.408 5.897-2.714 9.213 2.747 1.266 6.465 1.259 9.162 0z" fill="#6EC66C" fill-opacity=".5"/><path fill-rule="evenodd" clip-rule="evenodd" d="M42.754 18.559c0-.125-.001-.249-.003-.373a21.143 21.143 0 00-9.564 11.954c-.06-.852-.11-1.745-.15-2.69a1.996 1.996 0 00-.835-3.81 1.996 1.996 0 00-.823 3.815 150.021 150.021 0 01-.22 2.97 21.142 21.142 0 00-9.891-11.98c.04 7.222 3.696 13.589 9.252 17.39-.579 3.596-1.443 6.555-2.886 10.218 2.747 1.266 6.465 1.259 9.163 0-1.47-4.018-2.371-7.074-2.935-10.236 5.384-3.849 8.892-10.145 8.892-17.258z" fill="#6EC66C"/></svg>