<svg width="20" height="20" fill="none" xmlns="http://www.w3.org/2000/svg"><g clip-path="url(#clip0)" fill="#fff"><path d="M10 6.25a.833.833 0 000 1.667 2.5 2.5 0 012.5 2.5.833.833 0 001.666 0A4.167 4.167 0 009.999 6.25z"/><path d="M18.333 3.983h-5.05a7.15 7.15 0 00-6.558 0H5v-.758a.833.833 0 00-.833-.833H2.608a.833.833 0 00-.833.833v.758h-.108A1.667 1.667 0 000 5.65v9.533a1.666 1.666 0 001.667 1.667h5.05a7.15 7.15 0 006.558 0h5.058A1.666 1.666 0 0020 15.183V5.617a1.667 1.667 0 00-1.667-1.634zM1.667 5.65h2.916a7.167 7.167 0 000 9.508l-2.916.025V5.65zm2.825 4.75A5.542 5.542 0 1110 15.942 5.55 5.55 0 014.458 10.4h.034zm10.958 4.75a7.167 7.167 0 000-9.508h2.933v9.533l-2.933-.025z"/></g><defs><clipPath id="clip0"><path fill="#fff" d="M0 0h20v20H0z"/></clipPath></defs></svg>