<svg width="78" height="59" fill="none" xmlns="http://www.w3.org/2000/svg"><path d="M32.5 23.6a1.875 1.875 0 100 3.75 6.825 6.825 0 016.8 6.8 1.875 1.875 0 103.75 0A10.575 10.575 0 0032.5 23.6z" fill="#fff"/><path d="M55.676 18.175H41.001a21.225 21.225 0 00-22 0h-3.025V13.9a1.875 1.875 0 00-1.875-1.875H5.576A1.875 1.875 0 003.701 13.9v4.325a4.325 4.325 0 00-3.7 4.275v28.075A4.325 4.325 0 004.326 55h14.675a21.225 21.225 0 0022 0h14.675a4.326 4.326 0 004.325-4.425V22.5a4.324 4.324 0 00-4.325-4.325zm-48.175-2.4h4.725v2.5H7.501v-2.5zm-3.75 34.8V22.5a.575.575 0 01.575-.575h10a21.325 21.325 0 000 29.25h-10a.575.575 0 01-.575-.6zm8.55-14.05a17.7 17.7 0 1135.4 0 17.7 17.7 0 01-35.4 0zm43.95 14.05a.575.575 0 01-.575.575h-10a21.325 21.325 0 000-29.25h10a.575.575 0 01.575.6v28.075zM54 12a1.5 1.5 0 001.5 1.5h8.75a.25.25 0 01.25.25v8.75a1.5 1.5 0 103 0v-8.75a.25.25 0 01.25-.25h8.75a1.5 1.5 0 100-3h-8.75a.25.25 0 01-.25-.25V1.5a1.5 1.5 0 10-3 0v8.75a.25.25 0 01-.25.25H55.5A1.5 1.5 0 0054 12z" fill="#fff"/></svg>