<svg width="20" height="20" fill="none" xmlns="http://www.w3.org/2000/svg"><g clip-path="url(#clip0)" fill="#69A042"><path d="M4.383 8.125A3.128 3.128 0 011.258 5a3.128 3.128 0 013.125-3.125A3.129 3.129 0 017.508 5a3.129 3.129 0 01-3.125 3.125zm0-5c-1.034 0-1.875.84-1.875 1.875 0 1.034.84 1.875 1.875 1.875 1.034 0 1.875-.84 1.875-1.875a1.877 1.877 0 00-1.875-1.875z"/><path d="M.633 13.125a.625.625 0 01-.625-.625 4.37 4.37 0 014.38-4.374c.86 0 1.695.252 2.413.728a.623.623 0 01.176.866.622.622 0 01-.866.177 3.105 3.105 0 00-1.723-.52 3.122 3.122 0 00-3.13 3.123.626.626 0 01-.625.625zm18.124 0a.625.625 0 01-.625-.625c0-.833-.325-1.617-.916-2.208a3.118 3.118 0 00-3.937-.396.624.624 0 11-.69-1.042 4.362 4.362 0 012.419-.729c1.167 0 2.265.456 3.092 1.283a4.345 4.345 0 011.282 3.093c0 .344-.28.624-.625.624z"/><path d="M19.383 8.75c-.562 0-1.54-.22-2.101-1.61a3.1 3.1 0 01-2.274.985 3.1 3.1 0 01-2.274-.986c-.562 1.391-1.54 1.611-2.101 1.611a.625.625 0 010-1.25c1.203 0 1.25-2.476 1.25-2.5a3.129 3.129 0 013.125-3.125A3.129 3.129 0 0118.133 5c0 .024.046 2.5 1.25 2.5a.625.625 0 010 1.25zm-4.375-5.625c-1.034 0-1.875.84-1.875 1.875 0 1.034.84 1.875 1.875 1.875 1.034 0 1.875-.84 1.875-1.875a1.877 1.877 0 00-1.875-1.875zM9.383 15a2.503 2.503 0 01-2.5-2.5c0-1.378 1.121-2.5 2.5-2.5 1.378 0 2.5 1.122 2.5 2.5S10.76 15 9.383 15zm0-3.75a1.25 1.25 0 100 2.5 1.25 1.25 0 000-2.5z"/><path d="M6.135 17.5a.625.625 0 01-.541-.938 4.377 4.377 0 013.782-2.185c1.562 0 3.016.837 3.795 2.185a.624.624 0 11-1.083.625 3.124 3.124 0 00-5.412 0 .624.624 0 01-.541.314z"/></g><defs><clipPath id="clip0"><path fill="#fff" d="M0 0h20v20H0z"/></clipPath></defs></svg>