<svg width="20" height="20" fill="none" xmlns="http://www.w3.org/2000/svg"><g clip-path="url(#clip0)" fill="#69A042"><path d="M9.373 20a.619.619 0 01-.442-.183.62.62 0 01-.17-.564l.625-3.125a.623.623 0 01.17-.32l6.36-6.359c.45-.45 1.05-.699 1.688-.699a2.394 2.394 0 011.692 4.082L12.94 19.19a.617.617 0 01-.32.17l-3.124.626a.512.512 0 01-.123.014zm.797-1.422l2.02-.404 6.222-6.224a1.14 1.14 0 00-.022-1.635 1.11 1.11 0 00-.785-.316 1.13 1.13 0 00-.806.334l-6.226 6.225-.403 2.02zM1.87 17.5a1.877 1.877 0 01-1.876-1.875V1.875C-.006.841.835 0 1.87 0h12.5c1.034 0 1.875.84 1.875 1.875V7.5a.625.625 0 01-1.25 0V1.875a.625.625 0 00-.625-.625H1.87a.625.625 0 00-.625.625v13.75c0 .345.28.625.625.625h5a.625.625 0 010 1.25h-5z"/><path d="M6.87 5a.625.625 0 010-1.25h5a.625.625 0 010 1.25h-5zm-2.5 3.75a.625.625 0 010-1.25h7.5a.625.625 0 010 1.25h-7.5zm0 3.75a.625.625 0 010-1.25h6.25a.625.625 0 010 1.25H4.37z"/></g><defs><clipPath id="clip0"><path fill="#fff" d="M0 0h20v20H0z"/></clipPath></defs></svg>