<svg width="20" height="20" fill="none" xmlns="http://www.w3.org/2000/svg"><path d="M2.5 20a1.877 1.877 0 01-1.875-1.875V1.875C.625.841 1.465 0 2.5 0H15c.492 0 .956.19 1.31.532l2.496 2.4c.362.353.569.843.569 1.345v13.848c0 1.034-.84 1.875-1.875 1.875h-15zm0-18.75a.625.625 0 00-.625.625v16.25c0 .345.28.625.625.625h15c.345 0 .625-.28.625-.625V4.277a.63.63 0 00-.19-.447l-2.496-2.4A.623.623 0 0015 1.25H2.5z" fill="#69A042"/><path d="M6.25 15a1.877 1.877 0 01-1.875-1.875v-3.75c0-1.034.84-1.875 1.875-1.875h.863l.453-.904a.622.622 0 01.559-.346h3.75c.238 0 .453.133.56.346l.45.904h.865c1.034 0 1.875.84 1.875 1.875v3.75c0 1.034-.84 1.875-1.875 1.875h-7.5zm0-6.25a.625.625 0 00-.625.625v3.75c0 .345.28.625.625.625h7.5c.345 0 .625-.28.625-.625v-3.75a.625.625 0 00-.625-.625H12.5a.622.622 0 01-.56-.346l-.45-.904H8.511l-.453.904a.622.622 0 01-.559.346H6.25z" fill="#69A042"/><path d="M10 13.125a2.19 2.19 0 01-2.188-2.188A2.19 2.19 0 0110 8.75a2.19 2.19 0 012.188 2.188A2.19 2.19 0 0110 13.124zM10 10a.939.939 0 00-.938.938.939.939 0 001.875 0A.939.939 0 0010 10z" fill="#69A042"/></svg>