<svg width="20" height="20" fill="none" xmlns="http://www.w3.org/2000/svg"><path d="M10 19.063a.618.618 0 01-.252-.054.623.623 0 01-.21-.149c-.016-.017-2.073-2.075-8.505-2.162A1.063 1.063 0 010 15.636V1.995A1.056 1.056 0 011.058.937c5.4.072 7.955 1.436 8.942 2.17.988-.734 3.542-2.098 8.935-2.17A1.051 1.051 0 0120 1.996V15.64a1.059 1.059 0 01-1.023 1.057c-6.486.088-8.496 2.14-8.516 2.161a.515.515 0 01-.053.05.689.689 0 01-.175.11.31.31 0 01-.057.016.604.604 0 01-.176.027zm.625-1.85c1.268-.729 3.742-1.676 8.125-1.761V2.19c-3.306.066-5.392.653-6.567 1.14-.833.347-1.323.685-1.558.874v13.007zM1.25 15.451c4.38.084 6.858 1.031 8.125 1.76V4.207c-.59-.47-2.83-1.911-8.125-2.016v13.26z" fill="#69A042"/></svg>